<svg width="287" height="266" viewBox="0 0 287 266" fill="none" xmlns="http://www.w3.org/2000/svg">
<path d="M20.5066 177.608H53.6166C54.5924 177.608 55.5281 177.996 56.218 178.686C56.9079 179.376 57.2955 180.311 57.2955 181.287C57.2955 182.263 56.9079 183.198 56.218 183.888C55.5281 184.578 54.5924 184.966 53.6166 184.966H16.2145C15.2388 184.966 14.3031 184.578 13.6132 183.888C12.9232 183.198 12.5356 182.263 12.5356 181.287C12.5356 180.311 12.9232 179.376 13.6132 178.686C14.3031 177.996 15.2388 177.608 16.2145 177.608H17.1343" stroke="#AFAFAF" stroke-miterlimit="10"/>
<path d="M46.2589 189.779H53.6166C54.5924 189.779 55.5281 190.167 56.218 190.857C56.9079 191.547 57.2955 192.482 57.2955 193.458C57.2955 194.434 56.9079 195.37 56.218 196.059C55.5281 196.749 54.5924 197.137 53.6166 197.137H16.2145C15.2388 197.137 14.3031 196.749 13.6132 196.059C12.9232 195.37 12.5356 194.434 12.5356 193.458C12.5356 192.482 12.9232 191.547 13.6132 190.857C14.3031 190.167 15.2388 189.779 16.2145 189.779H42.8865" stroke="#AFAFAF" stroke-miterlimit="10"/>
<path d="M53.6166 209.314H16.2145C15.2388 209.314 14.3031 208.927 13.6132 208.237C12.9232 207.547 12.5356 206.611 12.5356 205.635C12.5356 204.66 12.9232 203.724 13.6132 203.034C14.3031 202.344 15.2388 201.956 16.2145 201.956H53.6166C54.5924 201.956 55.5281 202.344 56.218 203.034C56.9079 203.724 57.2955 204.66 57.2955 205.635C57.2955 206.611 56.9079 207.547 56.218 208.237C55.5281 208.927 54.5924 209.314 53.6166 209.314Z" stroke="#AFAFAF" stroke-miterlimit="10"/>
<path d="M42.8864 165.345H61.5874V215.93H36.7549" stroke="#AFAFAF" stroke-miterlimit="10"/>
<path d="M16.5212 215.93H8.55029V165.345H38.5946" stroke="#AFAFAF" stroke-miterlimit="10"/>
<path d="M32.4628 215.93H19.5867" stroke="#AFAFAF" stroke-miterlimit="10"/>
<path d="M11.3093 172.703H58.5218" stroke="#AFAFAF" stroke-miterlimit="10"/>
<path d="M67.106 12.7629H100.216C101.192 12.7629 102.127 13.1505 102.817 13.8405C103.507 14.5304 103.895 15.4661 103.895 16.4418C103.895 17.4175 103.507 18.3533 102.817 19.0432C102.127 19.7331 101.192 20.1207 100.216 20.1207H62.8139C61.8382 20.1207 60.9025 19.7331 60.2125 19.0432C59.5226 18.3533 59.135 17.4175 59.135 16.4418C59.135 15.4661 59.5226 14.5304 60.2125 13.8405C60.9025 13.1505 61.8382 12.7629 62.8139 12.7629H63.7336" stroke="#AFAFAF" stroke-miterlimit="10"/>
<path d="M92.8582 24.934H100.216C101.192 24.934 102.127 25.3216 102.817 26.0115C103.507 26.7014 103.895 27.6372 103.895 28.6129C103.895 29.5886 103.507 30.5243 102.817 31.2142C102.127 31.9042 101.192 32.2918 100.216 32.2918H62.8139C61.8382 32.2918 60.9025 31.9042 60.2125 31.2142C59.5226 30.5243 59.135 29.5886 59.135 28.6129C59.135 27.6372 59.5226 26.7014 60.2125 26.0115C60.9025 25.3216 61.8382 24.934 62.8139 24.934H89.4859" stroke="#AFAFAF" stroke-miterlimit="10"/>
<path d="M100.216 37.105H62.8139C60.7821 37.105 59.135 38.7521 59.135 40.7839C59.135 42.8157 60.7821 44.4628 62.8139 44.4628H100.216C102.248 44.4628 103.895 42.8157 103.895 40.7839C103.895 38.7521 102.248 37.105 100.216 37.105Z" stroke="#AFAFAF" stroke-miterlimit="10"/>
<path d="M89.4857 0.5H108.187V51.0848H83.3542" stroke="#AFAFAF" stroke-miterlimit="10"/>
<path d="M63.1204 51.0848H55.1494V0.5H85.1937" stroke="#AFAFAF" stroke-miterlimit="10"/>
<path d="M79.0622 51.0848H66.186" stroke="#AFAFAF" stroke-miterlimit="10"/>
<path d="M57.9084 7.85779H105.121" stroke="#AFAFAF" stroke-miterlimit="10"/>
<path d="M221.037 24.5232H201.704C201.51 24.5232 201.318 24.485 201.139 24.4108C200.96 24.3365 200.797 24.2277 200.66 24.0904C200.522 23.9532 200.414 23.7903 200.339 23.611C200.265 23.4318 200.227 23.2396 200.227 23.0456V17.4291C200.227 17.2351 200.265 17.0429 200.339 16.8636C200.414 16.6843 200.522 16.5214 200.66 16.3842C200.797 16.247 200.96 16.1382 201.139 16.0639C201.318 15.9896 201.51 15.9514 201.704 15.9514H227.61C228.002 15.9514 228.378 16.1071 228.655 16.3842C228.932 16.6613 229.088 17.0372 229.088 17.4291V19.6303" stroke="#AFAFAF" stroke-miterlimit="10"/>
<path d="M220.853 33.6592V21.6476C220.855 21.1375 221.058 20.6487 221.419 20.288C221.779 19.9273 222.268 19.7239 222.778 19.7223H248.432C248.943 19.7239 249.431 19.9273 249.792 20.288C250.153 20.6487 250.356 21.1375 250.358 21.6476V36.0321" stroke="#AFAFAF" stroke-miterlimit="10"/>
<path d="M250.358 47.878V62.8634C250.356 63.3735 250.153 63.8623 249.792 64.223C249.431 64.5837 248.943 64.7871 248.432 64.7887H222.778C222.268 64.7871 221.779 64.5837 221.419 64.223C221.058 63.8623 220.855 63.3735 220.853 62.8634V36.5409" stroke="#AFAFAF" stroke-miterlimit="10"/>
<path d="M222.674 26.7428H248.518" stroke="#AFAFAF" stroke-miterlimit="10"/>
<path d="M235.023 34.5359H248.519" stroke="#AFAFAF" stroke-miterlimit="10"/>
<path d="M222.674 34.5359H232.914" stroke="#AFAFAF" stroke-miterlimit="10"/>
<path d="M222.674 42.3291H248.518" stroke="#AFAFAF" stroke-miterlimit="10"/>
<path d="M243.889 50.1222H248.518" stroke="#AFAFAF" stroke-miterlimit="10"/>
<path d="M222.674 50.1222H241.559" stroke="#AFAFAF" stroke-miterlimit="10"/>
<path d="M222.674 57.9215H248.518" stroke="#AFAFAF" stroke-miterlimit="10"/>
<path d="M205.444 20.041H219.528" stroke="#AFAFAF" stroke-miterlimit="10"/>
<path d="M121.737 197.952H95.0899C94.5494 197.953 94.031 197.738 93.6483 197.357C93.2656 196.975 93.0497 196.457 93.0481 195.917V188.173C93.0481 187.631 93.2632 187.112 93.6461 186.729C94.029 186.346 94.5484 186.131 95.0899 186.131H130.794C131.335 186.131 131.854 186.346 132.237 186.729C132.62 187.112 132.835 187.631 132.835 188.173V191.208" stroke="#AFAFAF" stroke-miterlimit="10"/>
<path d="M121.486 210.553V193.998C121.486 193.294 121.766 192.618 122.264 192.12C122.762 191.622 123.437 191.343 124.141 191.343H159.502C160.206 191.343 160.881 191.622 161.379 192.12C161.877 192.618 162.157 193.294 162.157 193.998V213.833" stroke="#AFAFAF" stroke-miterlimit="10"/>
<path d="M162.144 230.149V250.806C162.144 251.51 161.864 252.185 161.366 252.683C160.869 253.181 160.193 253.461 159.489 253.461H124.129C123.425 253.461 122.749 253.181 122.251 252.683C121.754 252.185 121.474 251.51 121.474 250.806V214.52" stroke="#AFAFAF" stroke-miterlimit="10"/>
<path d="M123.994 201.012H159.624" stroke="#AFAFAF" stroke-miterlimit="10"/>
<path d="M141.015 211.755H159.624" stroke="#AFAFAF" stroke-miterlimit="10"/>
<path d="M123.994 211.755H138.115" stroke="#AFAFAF" stroke-miterlimit="10"/>
<path d="M123.994 222.503H159.624" stroke="#AFAFAF" stroke-miterlimit="10"/>
<path d="M153.241 233.245H159.624" stroke="#AFAFAF" stroke-miterlimit="10"/>
<path d="M123.994 233.245H150.028" stroke="#AFAFAF" stroke-miterlimit="10"/>
<path d="M123.994 243.988H159.624" stroke="#AFAFAF" stroke-miterlimit="10"/>
<path d="M100.247 191.778H119.659" stroke="#AFAFAF" stroke-miterlimit="10"/>
<path d="M167.454 231.216C165.925 231.217 164.456 230.624 163.358 229.56L159.563 225.796C159.317 225.539 159.18 225.198 159.181 224.843C159.181 224.487 159.32 224.146 159.566 223.891C159.813 223.636 160.149 223.486 160.504 223.473C160.859 223.46 161.205 223.585 161.47 223.821L162.218 224.52L158.398 216.666C158.306 216.468 158.255 216.254 158.247 216.036C158.238 215.818 158.273 215.601 158.349 215.397C158.462 215.099 158.659 214.841 158.918 214.655C159.176 214.469 159.483 214.362 159.801 214.349C160.119 214.336 160.434 214.417 160.707 214.581C160.979 214.746 161.198 214.987 161.335 215.274L162.757 218.076C163.01 217.754 163.372 217.536 163.775 217.463C164.314 217.418 164.851 217.573 165.283 217.898C165.546 217.563 165.929 217.344 166.35 217.285C166.798 217.239 167.248 217.348 167.626 217.592C167.712 217.372 167.868 217.187 168.069 217.065C168.271 216.944 168.507 216.891 168.742 216.917C168.997 216.939 169.243 217.025 169.457 217.166C169.672 217.307 169.847 217.5 169.968 217.727L172.666 222.687C173.122 223.584 173.34 224.583 173.3 225.588C173.26 226.594 172.963 227.572 172.437 228.43C171.911 229.288 171.174 229.997 170.296 230.489C169.419 230.981 168.429 231.24 167.423 231.24L167.454 231.216ZM160.531 224.06H160.433C160.292 224.078 160.158 224.135 160.048 224.225C159.937 224.315 159.854 224.434 159.808 224.569C159.762 224.704 159.755 224.849 159.787 224.988C159.82 225.127 159.891 225.254 159.992 225.354L163.787 229.113C164.682 229.985 165.858 230.511 167.104 230.596C168.351 230.681 169.587 230.321 170.592 229.579C171.597 228.836 172.306 227.761 172.591 226.545C172.877 225.328 172.721 224.05 172.151 222.938L169.465 217.99C169.393 217.854 169.288 217.737 169.159 217.651C169.031 217.566 168.883 217.514 168.729 217.5C168.478 217.5 168.208 217.543 168.116 218.113L168.024 218.671L167.607 218.291C167.287 218.007 166.87 217.856 166.442 217.868C166.268 217.904 166.104 217.977 165.961 218.083C165.818 218.189 165.7 218.325 165.614 218.481L165.418 218.793L165.142 218.542C164.798 218.222 164.343 218.047 163.873 218.051C163.679 218.099 163.498 218.19 163.344 218.317C163.19 218.445 163.067 218.605 162.984 218.787L162.69 219.296L160.777 215.519C160.662 215.275 160.455 215.087 160.202 214.995C159.948 214.904 159.669 214.917 159.425 215.032C159.181 215.146 158.992 215.353 158.901 215.607C158.81 215.86 158.823 216.14 158.937 216.384L164.118 227.145L161.053 224.25C160.91 224.122 160.723 224.054 160.531 224.06Z" fill="#AFAFAF"/>
<path d="M164.131 222.282C164.07 222.281 164.012 222.263 163.962 222.229C163.912 222.195 163.872 222.148 163.849 222.092L162.439 218.775C162.408 218.699 162.408 218.615 162.439 218.539C162.47 218.463 162.529 218.403 162.604 218.37C162.679 218.34 162.763 218.34 162.837 218.371C162.912 218.402 162.971 218.461 163.003 218.536L164.413 221.853C164.429 221.89 164.438 221.93 164.439 221.97C164.439 222.011 164.432 222.051 164.417 222.089C164.403 222.126 164.38 222.16 164.352 222.189C164.324 222.219 164.291 222.242 164.253 222.258C164.215 222.275 164.173 222.284 164.131 222.282Z" fill="#AFAFAF"/>
<path d="M166.589 221.553C166.53 221.553 166.471 221.536 166.421 221.503C166.371 221.47 166.331 221.424 166.307 221.369L165.081 218.456C165.065 218.419 165.056 218.379 165.055 218.339C165.054 218.298 165.062 218.258 165.077 218.221C165.091 218.183 165.113 218.149 165.142 218.12C165.17 218.091 165.203 218.068 165.24 218.052C165.316 218.022 165.4 218.023 165.476 218.054C165.551 218.085 165.611 218.143 165.645 218.217L166.871 221.13C166.887 221.167 166.896 221.206 166.896 221.247C166.896 221.287 166.888 221.327 166.873 221.364C166.858 221.401 166.835 221.435 166.806 221.463C166.777 221.491 166.743 221.513 166.706 221.528C166.67 221.545 166.63 221.554 166.589 221.553Z" fill="#AFAFAF"/>
<path d="M168.999 220.915C168.941 220.916 168.883 220.9 168.834 220.868C168.785 220.836 168.746 220.791 168.723 220.737L167.54 218.193C167.522 218.156 167.512 218.117 167.51 218.077C167.508 218.037 167.514 217.997 167.528 217.959C167.542 217.921 167.563 217.887 167.59 217.857C167.618 217.828 167.651 217.804 167.687 217.788C167.724 217.77 167.763 217.76 167.804 217.758C167.844 217.756 167.885 217.762 167.923 217.776C167.961 217.789 167.997 217.81 168.027 217.838C168.057 217.865 168.081 217.898 168.098 217.935L169.281 220.48C169.305 220.527 169.316 220.579 169.313 220.631C169.31 220.683 169.294 220.734 169.265 220.778C169.237 220.822 169.197 220.858 169.15 220.882C169.104 220.906 169.052 220.917 168.999 220.915Z" fill="#AFAFAF"/>
<path d="M158.464 6.81819L152.395 12.8881L158.464 18.9579L164.534 12.8881L158.464 6.81819Z" stroke="#AFAFAF" stroke-linecap="round" stroke-linejoin="round"/>
<path d="M263.986 73.6463L257.916 79.7162L263.986 85.7861L270.056 79.7162L263.986 73.6463Z" stroke="#AFAFAF" stroke-linecap="round" stroke-linejoin="round"/>
<path d="M78.2029 220.808L72.1331 226.878L78.2029 232.947L84.2728 226.878L78.2029 220.808Z" stroke="#AFAFAF" stroke-linecap="round" stroke-linejoin="round"/>
<path d="M147.183 17.9408L143.871 21.2532L147.183 24.5656L150.495 21.2532L147.183 17.9408Z" stroke="#AFAFAF" stroke-linecap="round" stroke-linejoin="round"/>
<path d="M144.12 179.202L140.807 182.514L144.12 185.827L147.432 182.514L144.12 179.202Z" stroke="#AFAFAF" stroke-linecap="round" stroke-linejoin="round"/>
<path d="M113.092 211.945C114.447 211.945 115.545 210.846 115.545 209.492C115.545 208.137 114.447 207.039 113.092 207.039C111.738 207.039 110.64 208.137 110.64 209.492C110.64 210.846 111.738 211.945 113.092 211.945Z" stroke="#AFAFAF" stroke-linecap="round" stroke-linejoin="round"/>
<path d="M191.575 184.966C192.93 184.966 194.028 183.868 194.028 182.513C194.028 181.159 192.93 180.061 191.575 180.061C190.221 180.061 189.123 181.159 189.123 182.513C189.123 183.868 190.221 184.966 191.575 184.966Z" stroke="#AFAFAF" stroke-linecap="round" stroke-linejoin="round"/>
<path d="M259.635 36.5838C260.989 36.5838 262.087 35.4857 262.087 34.1312C262.087 32.7767 260.989 31.6786 259.635 31.6786C258.28 31.6786 257.182 32.7767 257.182 34.1312C257.182 35.4857 258.28 36.5838 259.635 36.5838Z" stroke="#AFAFAF" stroke-linecap="round" stroke-linejoin="round"/>
<path d="M4.56466 44.1563C5.91919 44.1563 7.01726 43.0582 7.01726 41.7037C7.01726 40.3492 5.91919 39.2511 4.56466 39.2511C3.21013 39.2511 2.11206 40.3492 2.11206 41.7037C2.11206 43.0582 3.21013 44.1563 4.56466 44.1563Z" stroke="#AFAFAF" stroke-linecap="round" stroke-linejoin="round"/>
<path d="M78.9641 27.6011L73.5991 18.5327L24.2222 15.283V24.3944V27.6747V179.288L205.113 167.375V34.9834L78.9641 27.6011Z" fill="#AFAFAF"/>
<path d="M204.096 164.622L25.7917 175.885V28.6619L204.096 38.4968V164.622Z" fill="#656565"/>
<mask id="mask0_184_1996" style="mask-type:luminance" maskUnits="userSpaceOnUse" x="25" y="28" width="180" height="148">
<path d="M204.096 164.622L25.7917 175.885V28.6619L204.096 38.4968V164.622Z" fill="white"/>
</mask>
<g mask="url(#mask0_184_1996)">
<path opacity="0.17" d="M204.844 165.529L201.293 165.756V37.2582L204.844 37.4605V165.529Z" fill="black"/>
<path opacity="0.17" d="M204.844 164.487L201.293 164.707V114.95L204.844 114.889V164.487Z" fill="black"/>
<path d="M204.298 43.6656L24.9641 34.6401V26.6262L204.298 36.8045V43.6656Z" fill="#92E3A9" stroke="#AFAFAF" stroke-miterlimit="10"/>
</g>
<path d="M204.096 164.622L25.7917 175.885V28.6619L204.096 38.4968V164.622Z" stroke="#AFAFAF" stroke-linecap="round" stroke-linejoin="round"/>
<path opacity="0.2" d="M195.254 61.5022L167.435 60.4476H167.405L138.114 59.3378L138.084 59.3316L107.206 58.1666L107.169 58.1605L74.5737 56.9281H74.537L40.0596 55.6221V66.8979V170.269L195.186 161.764V71.3616H195.254V61.5022Z" fill="black"/>
<path d="M87.1312 64.0222L52.384 63.0657V51.7408L87.1312 53.0101V64.0222Z" fill="#92E3A9" stroke="#AFAFAF" stroke-miterlimit="10"/>
<path d="M77.2412 59.2457L62.6851 58.792V56.6766L77.2412 57.1549V59.2457Z" fill="#111111"/>
<path d="M120.033 64.9235L87.168 64.0221V53.0161L120.033 54.2118V64.9235Z" fill="#92E3A9" stroke="#AFAFAF" stroke-miterlimit="10"/>
<path d="M151.199 65.7758L120.07 64.9235V54.2118L151.199 55.3461V65.7758Z" fill="#92E3A9" stroke="#AFAFAF" stroke-miterlimit="10"/>
<path d="M180.759 66.5852V56.4253L151.23 55.3523V65.7758L52.384 63.0657V166.847L208.78 158.135V67.3578L180.759 66.5852Z" fill="#2C2C2C" stroke="#AFAFAF" stroke-linecap="round" stroke-linejoin="round"/>
<path d="M208.842 67.3577L180.796 66.5852V56.4253L208.842 57.4493V67.3577Z" fill="#92E3A9" stroke="#AFAFAF" stroke-miterlimit="10"/>
<path d="M204.42 148.575L125.195 152.285V84.3052L204.42 85.182V148.575Z" fill="#2C2C2C" stroke="#AFAFAF" stroke-linecap="round" stroke-linejoin="round"/>
<path d="M166.516 85.0226L146.84 84.8141V92.9322L166.516 93.0058V85.0226Z" fill="#92E3A9"/>
<path d="M192.385 102.491L198.43 102.461" stroke="#AFAFAF" stroke-linecap="round" stroke-linejoin="round"/>
<path d="M156.442 102.657L188.706 102.51" stroke="#AFAFAF" stroke-linecap="round" stroke-linejoin="round"/>
<path d="M130.223 102.779L152.916 102.675" stroke="#AFAFAF" stroke-linecap="round" stroke-linejoin="round"/>
<path d="M172.617 106.845L198.43 106.63" stroke="#AFAFAF" stroke-linecap="round" stroke-linejoin="round"/>
<path d="M157.999 106.967L168.422 106.881" stroke="#AFAFAF" stroke-linecap="round" stroke-linejoin="round"/>
<path d="M130.223 107.206L153.308 107.01" stroke="#AFAFAF" stroke-linecap="round" stroke-linejoin="round"/>
<path d="M145.398 111.443L198.43 110.793" stroke="#AFAFAF" stroke-linecap="round" stroke-linejoin="round"/>
<path d="M130.223 111.627L140.199 111.505" stroke="#AFAFAF" stroke-linecap="round" stroke-linejoin="round"/>
<path d="M185.75 115.165L198.43 114.957" stroke="#AFAFAF" stroke-linecap="round" stroke-linejoin="round"/>
<path d="M160.722 115.564L181.281 115.232" stroke="#AFAFAF" stroke-linecap="round" stroke-linejoin="round"/>
<path d="M130.223 116.054L156.441 115.631" stroke="#AFAFAF" stroke-linecap="round" stroke-linejoin="round"/>
<path d="M153.309 120.021L198.43 119.126" stroke="#AFAFAF" stroke-linecap="round" stroke-linejoin="round"/>
<path d="M130.223 120.475L148.967 120.107" stroke="#AFAFAF" stroke-linecap="round" stroke-linejoin="round"/>
<path d="M192.385 123.252L198.43 123.111" stroke="#AFAFAF" stroke-linecap="round" stroke-linejoin="round"/>
<path d="M156.442 124.092L188.706 123.338" stroke="#AFAFAF" stroke-linecap="round" stroke-linejoin="round"/>
<path d="M130.223 124.706L152.916 124.178" stroke="#AFAFAF" stroke-linecap="round" stroke-linejoin="round"/>
<path d="M172.617 127.98L198.43 127.275" stroke="#AFAFAF" stroke-linecap="round" stroke-linejoin="round"/>
<path d="M157.999 128.372L168.422 128.09" stroke="#AFAFAF" stroke-linecap="round" stroke-linejoin="round"/>
<path d="M130.223 129.133L153.308 128.501" stroke="#AFAFAF" stroke-linecap="round" stroke-linejoin="round"/>
<path d="M145.398 133.087L198.43 131.444" stroke="#AFAFAF" stroke-linecap="round" stroke-linejoin="round"/>
<path d="M130.223 133.553L140.199 133.247" stroke="#AFAFAF" stroke-linecap="round" stroke-linejoin="round"/>
<path d="M185.75 136.049L198.43 135.607" stroke="#AFAFAF" stroke-linecap="round" stroke-linejoin="round"/>
<path d="M160.722 136.92L181.281 136.202" stroke="#AFAFAF" stroke-linecap="round" stroke-linejoin="round"/>
<path d="M130.223 137.98L156.441 137.067" stroke="#AFAFAF" stroke-linecap="round" stroke-linejoin="round"/>
<path d="M153.309 141.512L198.43 139.771" stroke="#AFAFAF" stroke-linecap="round" stroke-linejoin="round"/>
<path d="M130.223 142.401L148.967 141.677" stroke="#AFAFAF" stroke-linecap="round" stroke-linejoin="round"/>
<path d="M127.538 93.0856L203.74 93.3554" stroke="#AFAFAF" stroke-linecap="round" stroke-linejoin="round"/>
<path d="M146.84 84.8141V92.9322" stroke="#AFAFAF" stroke-linecap="round" stroke-linejoin="round"/>
<path d="M166.516 85.0287V93.0058" stroke="#AFAFAF" stroke-linecap="round" stroke-linejoin="round"/>
<path d="M185.536 85.2311V93.0794" stroke="#AFAFAF" stroke-linecap="round" stroke-linejoin="round"/>
<path d="M163.315 89.75L150.746 89.6641V87.6959L163.315 87.8002V89.75Z" fill="#AFAFAF"/>
<path d="M142.903 89.6151L129.88 89.5293V87.5243L142.903 87.6347V89.6151Z" fill="#3B3B3B"/>
<path d="M182.635 89.8787L170.489 89.799V87.8615L182.635 87.9657V89.8787Z" fill="#3B3B3B"/>
<path d="M200.742 90.0014L188.994 89.9217V88.0148L200.742 88.1129V90.0014Z" fill="#3B3B3B"/>
<path d="M119.506 152.549L59.0674 155.375V71.7847L119.506 73.0232V152.549Z" fill="#2C2C2C" stroke="#AFAFAF" stroke-linecap="round" stroke-linejoin="round"/>
<path d="M119.506 103.435L104.496 93.7661L90.8776 123.921L77.3944 113.283L59.0674 155.375L119.506 152.549V103.435Z" stroke="#AFAFAF" stroke-miterlimit="10"/>
<path d="M81.9257 89.6151C81.9259 87.1948 80.9721 84.872 79.271 83.1503C77.57 81.4287 75.2589 80.4469 72.8389 80.4178C71.6358 80.4016 70.4416 80.6247 69.3256 81.0742C68.2097 81.5237 67.1942 82.1907 66.3383 83.0363C65.4825 83.8818 64.8033 84.8892 64.3404 85.9997C63.8774 87.1101 63.6399 88.3016 63.6416 89.5047C63.6416 91.9439 64.6106 94.2833 66.3354 96.0081C68.0602 97.7329 70.3996 98.7019 72.8389 98.7019C75.2488 98.7019 77.5601 97.7446 79.2642 96.0405C80.9684 94.3363 81.9257 92.025 81.9257 89.6151Z" stroke="#AFAFAF" stroke-miterlimit="10"/>
<path d="M110.419 60.282L96.6472 59.8528V57.7865L110.419 58.2402V60.282Z" fill="#111111"/>
<path d="M142.039 61.263L128.991 60.8583V58.8472L142.039 59.2764V61.263Z" fill="#111111"/>
<path d="M172.567 62.2134L160.2 61.8271V59.8773L172.567 60.282V62.2134Z" fill="#111111"/>
<path d="M201.005 63.0963L189.263 62.7284V60.8276L201.005 61.2139V63.0963Z" fill="#111111"/>
<path d="M233.729 265.84C253.455 265.84 269.445 263.521 269.445 260.659C269.445 257.798 253.455 255.478 233.729 255.478C214.004 255.478 198.013 257.798 198.013 260.659C198.013 263.521 214.004 265.84 233.729 265.84Z" fill="#92E3A9"/>
<path opacity="0.5" d="M233.729 265.84C253.455 265.84 269.445 263.521 269.445 260.659C269.445 257.798 253.455 255.478 233.729 255.478C214.004 255.478 198.013 257.798 198.013 260.659C198.013 263.521 214.004 265.84 233.729 265.84Z" fill="#2C2C2C"/>
<path d="M215.58 66.015C215.58 66.015 213.612 73.3298 214.029 74.0288C214.446 74.7278 215.439 74.4519 214.875 75.8683C214.311 77.2847 213.035 79.9457 213.33 81.0678C213.624 82.1898 215.169 83.036 215.169 83.036C215.169 83.036 215.874 88.1006 216.573 89.0816C217.272 90.0627 221.074 89.5047 221.074 89.5047L221.356 93.3062L232.607 92.6011L232.184 85.8565L231.62 65.0094L215.58 66.015Z" fill="#2C2C2C" stroke="#AFAFAF" stroke-linecap="round" stroke-linejoin="round"/>
<path d="M229.081 60.4108C228.382 60.5151 223.03 60.4108 218.811 61.1098C214.593 61.8088 213.33 62.097 213.471 63.9242C213.612 65.7514 213.189 66.4565 214.734 67.1555C215.389 67.5139 216.104 67.7527 216.843 67.8606C216.843 67.8606 216.42 69.8288 216.279 71.2391C216.138 72.6493 218.67 74.1883 218.67 74.1883C218.67 74.1883 218.529 76.2975 218.811 77.0027C219.093 77.7078 219.798 77.8488 220.221 77.2847C220.644 76.7206 220.92 74.0473 221.343 75.1755C221.767 76.3037 223.453 84.7345 224.581 85.7216C225.709 86.7088 230.768 86.1447 232.172 85.8627C233.576 85.5806 236.249 79.676 237.518 76.1565C238.788 72.637 238.217 66.4565 236.39 63.6421C234.563 60.8278 230.909 60.1288 229.081 60.4108Z" fill="#AFAFAF" stroke="#AFAFAF" stroke-linecap="round" stroke-linejoin="round"/>
<path d="M220.136 75.1019C220.323 76.4108 220.438 77.729 220.479 79.0505C220.479 80.5957 219.449 81.4541 220.136 82.1163C220.822 82.7785 221.362 82.4597 221.853 81.2579C222.414 79.8405 222.649 78.3148 222.539 76.7942C222.368 75.6169 222.196 73.0417 220.136 75.1019Z" fill="#2C2C2C" stroke="#AFAFAF" stroke-linecap="round" stroke-linejoin="round"/>
<path d="M218.67 92.8955L215.604 98.5181C215.604 98.5181 223.336 96.2678 227.555 96.2678C230.525 96.3213 233.487 96.6042 236.415 97.114L234.446 91.6263C234.446 91.6263 223.735 90.5042 218.67 92.8955Z" fill="#2C2C2C" stroke="#AFAFAF" stroke-linecap="round" stroke-linejoin="round"/>
<path d="M247.783 167.056C247.783 167.056 247.783 171.961 247.36 174.089C246.937 176.216 244.128 179.429 243 179.993C241.872 180.558 240.468 180.699 240.186 179.993C239.904 179.288 239.487 179.57 239.91 175.916C240.333 172.262 241.854 165.229 241.854 165.229L247.783 167.056Z" fill="#2C2C2C" stroke="#AFAFAF" stroke-linecap="round" stroke-linejoin="round"/>
<path d="M248.77 162.555L247.782 167.056C246.573 167.309 245.329 167.357 244.104 167.197C243.581 167.115 243.092 166.887 242.693 166.539C242.295 166.19 242.004 165.736 241.853 165.229L242.276 161.292L248.77 162.555Z" fill="#2C2C2C" stroke="#AFAFAF" stroke-linecap="round" stroke-linejoin="round"/>
<path d="M248.077 102.038C248.077 102.038 250.045 113.988 251.308 122.848C252.571 131.708 252.847 140.145 252.565 144.363C252.283 148.582 250.597 162.145 250.033 163.12C249.469 164.094 245.673 164.524 244.128 163.819C242.583 163.113 241.853 162.28 241.853 159.6C241.853 156.921 243.257 132.008 243.257 132.008L248.077 102.038Z" fill="#2C2C2C" stroke="#AFAFAF" stroke-linecap="round" stroke-linejoin="round"/>
<path d="M217.695 256.441C217.139 256.445 216.592 256.584 216.101 256.846C215.267 257.287 211.65 258.28 209.32 259.108C205.684 260.402 202.845 259.721 203.139 260.653C203.433 261.585 209.105 263.51 212.385 263.559C215.666 263.609 217.248 262.787 218.817 262.818C220.387 262.848 219.228 263.609 221.84 263.903C224.452 264.197 225.305 264.209 226.218 262.781C227.132 261.352 227.641 260.984 227.352 259.182V259.157C227.21 258.379 226.796 257.677 226.184 257.176C225.572 256.675 224.802 256.408 224.011 256.422L217.695 256.441Z" fill="#AFAFAF" stroke="#AFAFAF" stroke-linecap="round" stroke-linejoin="round"/>
<path d="M238.015 254.699C237.529 254.686 237.05 254.821 236.642 255.086C235.93 255.533 232.81 256.478 230.811 257.293C227.684 258.562 225.188 257.716 225.476 258.746C225.764 259.776 229.118 261.199 231.976 261.34C233.523 261.435 235.075 261.378 236.611 261.168C239.677 260.996 237.733 262.088 238.843 262.542C239.62 262.786 240.432 262.902 241.246 262.885C244.508 263.057 244.925 263.314 245.655 261.812C246.385 260.31 246.832 259.93 246.52 257.974V257.931C246.231 256.189 244.938 254.914 243.521 254.865L238.015 254.699Z" fill="#AFAFAF" stroke="#AFAFAF" stroke-linecap="round" stroke-linejoin="round"/>
<path d="M208.829 152.714C208.829 152.714 209.393 172.402 209.393 179.012C209.393 185.622 211.079 215.488 213.33 226.317C215.58 237.145 216.843 252.615 216.843 254.301C216.843 255.987 216.279 256.41 217.407 257.538C218.535 258.666 222.748 260.77 224.299 260.064C225.85 259.359 226.69 256.692 226.69 256.692C226.69 256.692 226.69 242.068 227.107 232.503C227.524 222.938 226.831 210.43 226.831 210.43C226.831 210.43 232.313 235.747 233.858 240.805C235.403 245.864 236.672 255.055 236.954 256.882C237.236 258.709 238.475 258.771 240.02 258.771C241.909 258.771 244.245 258.525 245.085 257.121C245.925 255.717 244.104 240.946 244.104 235.048C244.104 229.149 239.462 192.52 239.885 183.543C240.308 174.567 242.951 158.938 242.135 154.296C241.628 151.542 241.345 148.751 241.289 145.951C241.289 145.951 212.342 142.585 208.829 152.714Z" fill="#5E5E5E" stroke="#AFAFAF" stroke-linecap="round" stroke-linejoin="round"/>
<path d="M216.714 97.819C216.714 97.819 210.424 100.486 207.474 101.896C206.101 102.582 204.693 103.196 203.256 103.736C203.256 103.736 207.996 148.496 207.996 150.893C207.996 153.291 207.854 153.425 208.701 154.131C209.547 154.836 213.906 155.155 221.644 155.014C229.382 154.873 239.076 153.284 239.781 153.284C240.349 153.243 240.898 153.069 241.386 152.776C241.874 152.483 242.286 152.08 242.589 151.598C243.436 150.335 247.948 102.608 248.108 102.05C248.267 101.492 236.985 97.4082 235.998 97.1445C235.011 96.8809 229.358 93.0364 216.714 97.819Z" fill="#2C2C2C" stroke="#AFAFAF" stroke-linecap="round" stroke-linejoin="round"/>
<path d="M238.788 126.49C234.765 132.278 228.413 140.697 223.459 143.885" stroke="#AFAFAF" stroke-linecap="round" stroke-linejoin="round"/>
<path d="M242.712 120.585C242.712 120.585 241.982 121.756 240.762 123.584" stroke="#AFAFAF" stroke-linecap="round" stroke-linejoin="round"/>
<path d="M231.068 140.592C231.068 140.592 225.501 145.657 220.945 148.189" stroke="#AFAFAF" stroke-linecap="round" stroke-linejoin="round"/>
<path d="M238.923 232.362C240.423 233.938 242.192 235.234 244.147 236.189C244.147 235.778 244.147 235.391 244.147 235.036C244.147 229.131 239.505 192.508 239.928 183.531C240.002 181.894 240.155 180.036 240.345 178.068C240.194 177.67 240.007 177.286 239.787 176.922C237.492 173.355 235.425 169.646 233.6 165.817L240.903 172.801C240.964 172.274 241.026 171.74 241.081 171.213C239.137 167.718 236.58 162.923 236.409 161.458L227.825 166.093C227.825 166.093 226.703 199.479 226.844 210.449C226.844 210.449 227.671 214.281 228.775 219.253C231.43 225.274 236.17 229.511 238.923 232.362Z" fill="#AFAFAF" stroke="#AFAFAF" stroke-linecap="round" stroke-linejoin="round"/>
<path d="M210.521 154.922C210.998 156.668 211.613 158.374 212.361 160.023C212.902 161.159 213.788 162.095 214.893 162.696" stroke="#AFAFAF" stroke-linecap="round" stroke-linejoin="round"/>
<path d="M219.59 252.179C219.774 254.337 219.749 256.508 219.516 258.66" stroke="#AFAFAF" stroke-linecap="round" stroke-linejoin="round"/>
<path d="M218.964 244.123C219.093 245.962 219.21 247.642 219.314 248.985" stroke="#AFAFAF" stroke-linecap="round" stroke-linejoin="round"/>
<path d="M215.323 170.986C215.672 185.089 216.512 216.04 217.266 222.938C217.812 227.942 218.315 234.852 218.725 240.72" stroke="#AFAFAF" stroke-linecap="round" stroke-linejoin="round"/>
<path d="M214.826 155.136C214.685 155.559 215.157 163.959 215.157 163.959C215.157 163.959 215.188 165.388 215.249 167.798" stroke="#AFAFAF" stroke-linecap="round" stroke-linejoin="round"/>
<path d="M185.444 114.54C185.444 114.54 185.99 113.589 186.799 111.964C187.608 110.34 187.479 108.286 187.479 107.225C187.479 106.164 188.706 105.735 188.706 104.515C188.706 103.295 186.946 103.436 186.002 104.245C185.058 105.054 184.775 107.495 184.775 107.495C184.775 107.495 183.273 104.956 182.476 103.166C181.753 101.553 180.759 98.7756 179.41 98.371C178.061 97.9663 178.123 99.6402 178.264 100.045C178.483 100.832 178.761 101.6 179.098 102.344C179.41 102.957 180.042 104.797 180.042 104.797C180.042 104.797 178.147 103.307 177.473 103.307C177.302 103.314 177.137 103.366 176.992 103.456C176.847 103.546 176.728 103.672 176.646 103.822C176.564 103.972 176.522 104.14 176.524 104.311C176.526 104.482 176.572 104.649 176.657 104.797C176.657 104.797 175.033 105.471 175.431 106.556C175.83 107.642 175.977 108.046 175.977 108.046C175.977 108.046 175.566 108.586 175.977 109.941C176.388 111.296 178.141 113.62 178.816 114.681C179.205 115.311 179.711 115.863 180.306 116.306L185.444 114.54Z" fill="#2C2C2C" stroke="#AFAFAF" stroke-linecap="round" stroke-linejoin="round"/>
<path d="M176.663 104.791C177.096 105.456 177.6 106.073 178.165 106.63" stroke="#AFAFAF" stroke-linecap="round" stroke-linejoin="round"/>
<path d="M175.989 108.04C176.243 108.486 176.552 108.898 176.909 109.267" stroke="#AFAFAF" stroke-linecap="round" stroke-linejoin="round"/>
<path d="M181.262 121.585L178.871 116.379C179.343 115.701 179.948 115.126 180.651 114.691C181.353 114.255 182.137 113.968 182.954 113.847C185.903 113.283 186.327 113.847 186.327 113.847L187.872 119.193C187.872 119.193 182.813 119.617 181.262 121.585Z" fill="#2C2C2C" stroke="#AFAFAF" stroke-linecap="round" stroke-linejoin="round"/>
<path d="M195.61 131.144C195.61 131.144 191.25 123.694 190.122 121.021C188.994 118.347 187.455 117.642 184.922 117.924C182.39 118.206 180.14 120.88 180.14 122.829C180.14 124.779 189.141 144.204 189.564 145.332C189.987 146.46 193.077 146.736 195.187 145.473C197.296 144.21 197.578 137.336 195.61 131.144Z" fill="#2C2C2C" stroke="#AFAFAF" stroke-linecap="round" stroke-linejoin="round"/>
<path d="M203.225 103.724C203.225 103.724 197.425 120.824 196.444 123.492C195.463 126.159 190.925 138.318 189.699 140.709C188.473 143.1 189.564 147.178 193.378 147.742C197.192 148.306 197.738 147.178 199.706 144.363C201.674 141.549 206.53 134.516 206.53 134.516C206.53 134.516 204.366 106.955 203.225 103.724Z" fill="#2C2C2C" stroke="#AFAFAF" stroke-linecap="round" stroke-linejoin="round"/>
</svg>
