<svg width="303" height="223" viewBox="0 0 303 223" fill="none" xmlns="http://www.w3.org/2000/svg">
<path d="M67.2253 61.5416L10.7478 99.3214L66.3778 182.483L122.855 144.704L67.2253 61.5416Z" fill="#3F3F3F"/>
<path d="M93.6704 140.77L93.0311 144.736L64.9536 140.689L65.5929 136.723L93.6704 140.77Z" fill="#969696"/>
<path d="M79.5311 126.62L83.558 127.199L79.0932 154.844L75.0613 154.26L79.5311 126.62Z" fill="#969696"/>
<path d="M53.6935 91.4858C53.7338 91.5412 48.076 95.402 41.0541 100.093C34.0322 104.785 28.309 108.55 28.2688 108.489C28.2285 108.429 33.8863 104.573 40.9082 99.8769C47.93 95.1805 53.6281 91.4254 53.6935 91.4858Z" fill="#969696"/>
<path d="M74.442 86.2711C74.4823 86.3315 65.0695 92.694 53.4217 100.486C41.7739 108.278 32.2805 114.545 32.2503 114.489C32.2201 114.434 41.6128 108.062 53.2757 100.27C64.9386 92.4775 74.4018 86.2107 74.442 86.2711Z" fill="#969696"/>
<path d="M78.6049 92.4926C78.6451 92.553 69.2323 98.9205 57.5845 106.713C45.9367 114.505 36.4434 120.771 36.4132 120.711C36.383 120.651 45.7857 114.288 57.4385 106.491C69.0913 98.694 78.5646 92.4322 78.6049 92.4926Z" fill="#969696"/>
<path d="M82.7675 98.7192C82.8077 98.7796 73.3949 105.147 61.7471 112.934C50.0993 120.721 40.606 126.998 40.606 126.938C40.606 126.877 49.9735 120.51 61.6263 112.718C73.2791 104.926 82.7272 98.6588 82.7675 98.7192Z" fill="#969696"/>
<path d="M86.9152 104.946C86.9555 105.006 77.5427 111.369 65.8949 119.161C54.2471 126.953 44.7537 133.22 44.7286 133.159C44.7034 133.099 54.1112 126.736 65.7741 118.944C77.437 111.152 86.9152 104.885 86.9152 104.946Z" fill="#969696"/>
<path d="M256.08 117.265L208.647 148.994L255.366 218.835L302.798 187.106L256.08 117.265Z" fill="#3F3F3F"/>
<path d="M278.293 183.817L277.755 187.149L254.172 183.752L254.716 180.42L278.293 183.817Z" fill="#969696"/>
<path d="M266.419 171.933L269.801 172.421L266.051 195.636L262.664 195.148L266.419 171.933Z" fill="#969696"/>
<path d="M244.699 142.451C244.739 142.512 239.992 145.758 234.093 149.7C228.194 153.641 223.382 156.792 223.341 156.747C223.301 156.701 228.053 153.445 233.947 149.498C239.841 145.552 244.659 142.366 244.699 142.451Z" fill="#969696"/>
<path d="M262.14 138.047C262.18 138.107 254.283 143.463 244.523 150.002C234.762 156.54 226.774 161.805 226.734 161.745C226.694 161.685 234.591 156.329 244.351 149.785C254.112 143.241 262.085 137.986 262.14 138.047Z" fill="#969696"/>
<path d="M265.639 143.272C265.679 143.332 257.781 148.688 248.021 155.232C238.261 161.775 230.272 167.03 230.232 166.97C230.192 166.909 238.064 161.579 247.85 155.035C257.635 148.492 265.608 143.216 265.639 143.272Z" fill="#969696"/>
<path d="M269.132 148.491C269.172 148.552 261.269 153.908 251.514 160.451C241.759 166.995 233.766 172.25 233.725 172.19C233.685 172.129 241.583 166.779 251.343 160.23C261.103 153.681 269.097 148.441 269.132 148.491Z" fill="#969696"/>
<path d="M272.655 153.731C272.696 153.792 264.798 159.143 255.038 165.686C245.278 172.23 237.289 177.485 237.249 177.43C237.209 177.374 245.106 172.014 254.867 165.47C264.627 158.926 272.59 153.671 272.655 153.731Z" fill="#969696"/>
<path d="M181.04 64.601L129.285 36.9203L88.5261 113.127L140.281 140.808L181.04 64.601Z" fill="#3F3F3F"/>
<path d="M131.423 116.966L128.141 118.088L119.805 95.0497L123.092 93.9221L131.423 116.966Z" fill="#969696"/>
<path d="M136.456 100.436L137.654 103.743L114.771 111.58L113.573 108.273L136.456 100.436Z" fill="#969696"/>
<path d="M152.715 66.4436C152.674 66.5191 147.429 63.7909 140.991 60.3529C134.553 56.915 129.374 54.0609 129.414 53.9854C129.454 53.9099 134.704 56.6381 141.142 60.0761C147.58 63.514 152.755 66.3631 152.715 66.4436Z" fill="#969696"/>
<path d="M165.137 80.1502C165.097 80.2257 156.409 75.6552 145.733 69.9471C135.057 64.2389 126.439 59.5476 126.479 59.4721C126.52 59.3966 135.203 63.9621 145.879 69.6752C156.555 75.3884 165.178 80.0747 165.137 80.1502Z" fill="#969696"/>
<path d="M162.087 85.8532C162.047 85.9287 153.359 81.3632 142.683 75.6501C132.006 69.9369 123.389 65.2506 123.429 65.1751C123.469 65.0996 132.152 69.6701 142.829 75.3782C153.505 81.0864 162.127 85.7777 162.087 85.8532Z" fill="#969696"/>
<path d="M159.037 91.5563C158.997 91.6318 150.309 87.0663 139.632 81.3582C128.956 75.6501 120.339 70.9739 120.379 70.8833C120.419 70.7927 129.102 75.3733 139.778 81.0814C150.455 86.7895 159.077 91.4808 159.037 91.5563Z" fill="#969696"/>
<path d="M155.986 97.2594C155.946 97.3349 147.258 92.7694 136.582 87.0613C125.906 81.3532 117.283 76.6619 117.328 76.5864C117.374 76.5109 126.052 81.0764 136.728 86.7845C147.404 92.4926 156.027 97.1839 155.986 97.2594Z" fill="#969696"/>
<path opacity="0.2" d="M156.253 0H154.955V22.1378H156.253V0Z" fill="black"/>
<path d="M125.286 48.9216H185.921C185.921 48.9216 180.324 22.1478 155.146 22.1478C132.751 22.1478 125.286 48.9216 125.286 48.9216Z" fill="#FF725E"/>
<path d="M156.253 0H154.955V22.1378H156.253V0Z" fill="#FF725E"/>
<path d="M290.61 221.393C290.61 221.464 225.551 221.524 145.31 221.524C65.0695 221.524 0 221.479 0 221.393C0 221.308 65.0493 221.262 145.31 221.262C225.571 221.262 290.61 221.318 290.61 221.393Z" fill="#263238"/>
<path d="M16.0874 189.868C16.9384 189.929 17.7684 190.161 18.5277 190.55C19.287 190.94 19.9601 191.478 20.5069 192.133C21.5941 193.451 22.3639 195.001 22.7569 196.663C23.6076 199.844 23.0841 203.604 22.1781 206.771C18.7351 205.537 16.6059 201.863 15.6344 199.93C14.1243 196.88 13.2233 190.437 16.0723 189.863" fill="#FF725E"/>
<path d="M27.1361 210.631C26.6191 209.83 26.3234 208.905 26.2792 207.952C26.235 206.999 26.4438 206.051 26.8844 205.205C27.3388 204.367 27.9556 203.628 28.6989 203.03C29.4421 202.433 30.2969 201.99 31.2133 201.727C32.0539 201.465 33.0305 201.359 33.7603 201.848C34.0893 202.096 34.3456 202.429 34.5023 202.811C34.659 203.192 34.7105 203.609 34.6513 204.017C34.5192 204.835 34.1717 205.603 33.6446 206.242C31.9684 208.512 29.9348 210.4 27.1009 210.631" fill="#FF725E"/>
<path d="M27.5188 221.267C27.4441 221.054 27.3918 220.833 27.3627 220.608C27.2721 220.135 27.1513 219.526 27.0053 218.796C26.5535 216.797 26.4277 214.739 26.6329 212.7C26.8702 210.652 27.6505 208.703 28.893 207.057C29.2726 206.565 29.7103 206.121 30.1967 205.734C30.3288 205.629 30.4666 205.531 30.6094 205.442C30.6548 205.404 30.7058 205.373 30.7604 205.351C30.1237 205.895 29.542 206.5 29.0238 207.158C27.8469 208.806 27.1057 210.724 26.8694 212.735C26.5473 215.081 26.945 217.23 27.1765 218.776C27.2973 219.546 27.398 220.17 27.4533 220.603C27.493 220.822 27.5149 221.044 27.5188 221.267Z" fill="#263238"/>
<path d="M17.1948 194.715C17.2523 194.794 17.2996 194.881 17.3358 194.972C17.4264 195.173 17.5472 195.425 17.6881 195.742C17.9952 196.411 18.423 197.383 18.9415 198.586C19.9784 200.997 21.3677 204.349 22.8174 208.084C24.267 211.819 25.5003 215.227 26.3409 217.709C26.7738 218.947 27.111 219.954 27.3476 220.653C27.4533 220.985 27.5339 221.252 27.5993 221.459C27.6352 221.551 27.6605 221.647 27.6748 221.746C27.6238 221.66 27.5832 221.569 27.554 221.474C27.4785 221.272 27.3828 221.011 27.257 220.683L26.1949 217.764C25.2939 215.303 24.0355 211.9 22.5909 208.17C21.1462 204.44 19.7771 201.078 18.7804 198.651C18.2771 197.458 17.8895 196.487 17.6025 195.777C17.4717 195.455 17.366 195.198 17.2854 194.992C17.2476 194.902 17.2173 194.81 17.1948 194.715Z" fill="#263238"/>
<path d="M23.4263 214.23C22.3906 212.506 20.9593 211.053 19.2508 209.991C17.5422 208.929 15.6055 208.29 13.6007 208.125C12.594 208.054 11.3558 208.225 10.9027 209.131C10.4497 210.037 11.0537 211.145 11.7484 211.88C13.2243 213.424 15.1242 214.496 17.2087 214.962C19.2931 215.428 21.4689 215.266 23.4616 214.497" fill="#FF725E"/>
<path d="M15.1511 210.853C15.3646 210.842 15.5785 210.851 15.7904 210.878C16.0386 210.891 16.2857 210.92 16.5304 210.964C16.8173 211.019 17.1545 211.049 17.5069 211.15C17.9007 211.233 18.2891 211.341 18.6696 211.472C19.1106 211.614 19.5426 211.782 19.9633 211.975C20.931 212.409 21.8462 212.951 22.6915 213.591C23.527 214.246 24.2837 214.996 24.9465 215.826C25.2328 216.187 25.4967 216.565 25.7368 216.959C25.9539 217.298 26.1522 217.649 26.3308 218.011C26.482 218.305 26.6165 218.607 26.7335 218.917C26.8344 219.146 26.9202 219.381 26.9902 219.621C27.0647 219.822 27.1204 220.029 27.1563 220.241C27.1009 220.241 26.8593 219.375 26.1798 218.086C25.9947 217.74 25.7914 217.404 25.5707 217.079C25.3254 216.698 25.0599 216.33 24.7754 215.977C23.4588 214.35 21.7798 213.054 19.8727 212.192C19.4347 212 19.017 211.819 18.6092 211.688C18.2349 211.552 17.8535 211.436 17.4666 211.341C16.0572 210.953 15.1461 210.908 15.1511 210.853Z" fill="#263238"/>
<path d="M243.642 53.0945C242.162 53.4317 241.442 55.1381 241.301 56.6482C241.16 58.1583 241.351 59.759 240.717 61.1382C240.002 62.6885 238.296 63.8362 238.241 65.5426C238.205 66.5845 238.824 67.556 238.794 68.6081C238.744 70.3195 237.002 71.6282 236.907 73.3195C236.841 74.5528 237.662 75.7306 237.465 76.9487C237.314 77.8951 236.574 78.64 236.262 79.5461C235.643 81.3582 236.887 83.3465 238.502 84.3633C239.408 84.9324 240.426 85.297 241.487 85.4316C242.548 85.5662 243.625 85.4675 244.644 85.1425C245.662 84.8175 246.598 84.274 247.384 83.5499C248.171 82.8258 248.79 81.9387 249.199 80.9505C250.095 78.7759 249.898 76.3246 249.702 73.9839C249.098 66.6819 248.648 59.3697 248.353 52.0475" fill="#263238"/>
<path d="M239.343 78.8565C239.648 78.6672 239.885 78.3874 240.023 78.0562C240.168 77.6622 240.226 77.2415 240.194 76.8229C240.139 76.2679 240.015 75.7218 239.826 75.1971C239.585 74.5374 239.496 73.8321 239.564 73.1333C239.69 72.348 240.254 71.7037 240.762 71.0695C241.036 70.7591 241.265 70.4117 241.442 70.0376C241.619 69.6593 241.648 69.2281 241.523 68.8296C241.261 68.0091 240.455 67.405 240.088 66.4537C239.915 65.9827 239.887 65.4709 240.007 64.9839C240.122 64.5273 240.291 64.0861 240.511 63.6701C240.936 62.9209 241.274 62.1254 241.518 61.2993C241.87 59.7036 241.704 58.1784 241.945 56.9251C242.079 55.9212 242.525 54.9847 243.219 54.2472C243.415 54.0485 243.639 53.879 243.883 53.7438C243.967 53.6999 244.057 53.6678 244.15 53.6482C243.835 53.8219 243.545 54.0387 243.289 54.2925C242.646 55.0374 242.241 55.9578 242.127 56.9351C242.038 57.6028 241.991 58.2752 241.986 58.9486C241.984 59.7411 241.907 60.5316 241.754 61.3093C241.514 62.1544 241.176 62.9687 240.747 63.7355C240.37 64.5258 240.023 65.452 240.355 66.3178C240.687 67.1836 241.487 67.7826 241.794 68.7087C241.933 69.1663 241.899 69.6588 241.699 70.093C241.503 70.5047 241.248 70.8861 240.944 71.2256C240.44 71.8598 239.892 72.4638 239.771 73.1685C239.7 73.8369 239.779 74.5127 240.002 75.1467C240.182 75.6878 240.294 76.2492 240.335 76.8179C240.359 77.2559 240.282 77.6936 240.108 78.0964C240 78.3489 239.826 78.5679 239.605 78.7307C239.526 78.7883 239.437 78.831 239.343 78.8565Z" fill="#455A64"/>
<path d="M235.407 90.7911L230.876 103.879L211.93 104.885L208.769 111.932L228.551 113.946C229.486 114.329 230.488 114.52 231.498 114.505C232.509 114.49 233.505 114.271 234.428 113.86C235.352 113.45 236.182 112.856 236.869 112.115C237.556 111.375 238.086 110.503 238.427 109.551L243.707 94.813L235.407 90.7911Z" fill="#B78876"/>
<path d="M274.573 214.281C274.573 214.281 260.691 170.176 260.394 168.747C260.127 167.448 265.427 135.711 266.102 127.471L247.341 128.171V128.357L239.368 128.8L246.506 218.962H255.138L254.283 189.037C259.608 203.328 267.239 217.895 267.239 217.895L274.573 214.281Z" fill="#B78876"/>
<path d="M254.635 199.774C254.635 199.502 254.53 189.747 254.53 189.747C254.424 190.331 251.222 181.28 251.298 180.732C251.338 180.445 254.635 199.774 254.635 199.774Z" fill="#A36957"/>
<path d="M250.935 176.443C250.891 176.622 250.872 176.807 250.88 176.992C250.852 177.495 250.852 177.999 250.88 178.502C250.88 178.819 250.925 179.161 250.966 179.534C251.006 179.906 251.061 180.299 251.147 180.707C251.326 181.597 251.563 182.475 251.857 183.334C252.481 185.161 253.175 186.757 253.664 187.915C253.895 188.418 254.096 188.896 254.268 189.279C254.329 189.457 254.414 189.626 254.519 189.782C254.492 189.608 254.442 189.439 254.368 189.279C254.253 188.947 254.076 188.468 253.865 187.879C253.422 186.702 252.758 185.091 252.138 183.284C251.846 182.437 251.605 181.573 251.419 180.697C251.328 180.294 251.268 179.906 251.212 179.544C251.157 179.181 251.117 178.839 251.091 178.537C251.031 177.913 251.006 177.41 250.991 177.057C251 176.851 250.982 176.644 250.935 176.443Z" fill="#A36957"/>
<path d="M246.345 219.42V218.61L255.189 218.222L255.214 221.569L254.67 221.605C252.239 221.746 242.313 222.158 240.692 221.67C238.875 221.126 246.345 219.42 246.345 219.42Z" fill="#455A64"/>
<path d="M255.33 221.368C255.279 221.371 255.229 221.371 255.179 221.368L254.746 221.398L253.145 221.469C251.796 221.524 249.929 221.574 247.87 221.584C245.811 221.595 243.939 221.559 242.585 221.519L240.989 221.454H240.551H240.4C240.45 221.45 240.501 221.45 240.551 221.454H240.989L242.59 221.484C243.939 221.484 245.806 221.524 247.865 221.514C249.923 221.504 251.796 221.469 253.145 221.433L254.746 221.393H255.33V221.368Z" fill="#263238"/>
<path d="M243.461 221.65C243.387 221.387 243.286 221.132 243.159 220.89C242.999 220.667 242.815 220.462 242.61 220.281C242.885 220.379 243.113 220.577 243.249 220.834C243.416 221.072 243.491 221.361 243.461 221.65Z" fill="#263238"/>
<path d="M246.068 220.326C246.068 220.326 245.922 220.19 245.791 219.989C245.66 219.787 245.58 219.611 245.605 219.596C245.63 219.581 245.751 219.727 245.882 219.928C246.013 220.13 246.093 220.311 246.068 220.326Z" fill="#263238"/>
<path d="M246.783 219.969C246.783 219.994 246.622 219.898 246.471 219.762C246.32 219.626 246.209 219.501 246.229 219.48C246.249 219.46 246.39 219.551 246.541 219.687C246.692 219.823 246.803 219.923 246.783 219.969Z" fill="#263238"/>
<path d="M247.231 219.113C247.083 219.167 246.925 219.188 246.768 219.173C246.614 219.194 246.457 219.178 246.31 219.128C246.456 219.074 246.612 219.053 246.768 219.068C246.923 219.046 247.082 219.062 247.231 219.113Z" fill="#263238"/>
<path d="M247.382 218.529C247.232 218.626 247.057 218.679 246.878 218.68C246.707 218.703 246.533 218.678 246.375 218.61C246.541 218.582 246.71 218.568 246.878 218.569C247.044 218.54 247.213 218.526 247.382 218.529Z" fill="#263238"/>
<path d="M245.771 219.556C245.583 219.591 245.39 219.591 245.202 219.556C244.999 219.531 244.798 219.487 244.603 219.425C244.482 219.392 244.366 219.344 244.256 219.284C244.189 219.245 244.139 219.182 244.115 219.108C244.106 219.066 244.109 219.022 244.124 218.982C244.139 218.942 244.166 218.907 244.2 218.881C244.34 218.814 244.492 218.778 244.647 218.777C244.802 218.775 244.956 218.808 245.096 218.873C245.237 218.938 245.361 219.034 245.46 219.153C245.56 219.272 245.631 219.411 245.67 219.561C245.68 219.611 245.68 219.662 245.67 219.712C245.613 219.53 245.525 219.36 245.408 219.209C245.275 219.058 245.1 218.949 244.905 218.897C244.682 218.825 244.44 218.843 244.231 218.947C244.145 219.012 244.18 219.118 244.276 219.178C244.379 219.234 244.487 219.279 244.598 219.314C244.787 219.377 244.981 219.425 245.177 219.46C245.554 219.541 245.771 219.541 245.771 219.556Z" fill="#263238"/>
<path d="M245.625 219.586C245.552 219.469 245.526 219.329 245.554 219.194C245.573 219.046 245.626 218.904 245.71 218.781C245.758 218.697 245.825 218.626 245.907 218.575C245.989 218.524 246.082 218.494 246.179 218.489C246.236 218.502 246.286 218.537 246.318 218.585C246.351 218.634 246.364 218.693 246.355 218.751C246.342 218.841 246.31 218.927 246.259 219.002C246.183 219.127 246.093 219.244 245.992 219.35C245.905 219.45 245.794 219.528 245.67 219.576C245.67 219.576 245.781 219.475 245.937 219.294C246.028 219.191 246.107 219.077 246.174 218.957C246.249 218.836 246.304 218.62 246.174 218.595C246.043 218.569 245.892 218.725 245.806 218.836C245.726 218.945 245.671 219.071 245.645 219.204C245.625 219.33 245.618 219.458 245.625 219.586Z" fill="#263238"/>
<path d="M255.143 218.962C255.143 218.962 254.892 218.962 254.494 218.987C253.976 219.049 253.486 219.255 253.08 219.582C252.673 219.908 252.366 220.342 252.194 220.834C252.063 221.212 252.053 221.469 252.033 221.464C252.012 221.459 252.033 221.398 252.033 221.288C252.045 221.125 252.076 220.965 252.123 220.809C252.283 220.294 252.591 219.837 253.009 219.496C253.432 219.16 253.946 218.959 254.484 218.917C254.651 218.897 254.82 218.897 254.987 218.917C255.041 218.925 255.094 218.94 255.143 218.962Z" fill="#263238"/>
<path d="M250.91 220.663C250.488 220.762 250.055 220.804 249.622 220.789C249.191 220.811 248.759 220.774 248.338 220.678C248.338 220.648 248.912 220.678 249.622 220.678C250.331 220.678 250.905 220.633 250.91 220.663Z" fill="#263238"/>
<path d="M252.632 220.648C252.632 220.648 252.587 220.769 252.526 220.9C252.466 221.031 252.436 221.152 252.405 221.147C252.375 221.142 252.36 221.011 252.431 220.855C252.501 220.699 252.612 220.623 252.632 220.648Z" fill="#263238"/>
<path d="M253.281 219.838C253.281 219.838 253.246 219.949 253.155 220.039C253.065 220.13 252.974 220.19 252.949 220.17C252.924 220.15 252.984 220.059 253.075 219.964C253.165 219.868 253.256 219.813 253.281 219.838Z" fill="#263238"/>
<path d="M254.207 219.465C254.207 219.496 254.086 219.496 253.955 219.541C253.825 219.586 253.734 219.657 253.709 219.637C253.684 219.616 253.759 219.496 253.92 219.44C254.081 219.385 254.217 219.435 254.207 219.465Z" fill="#263238"/>
<path d="M254.867 219.284C254.867 219.314 254.831 219.36 254.756 219.385C254.68 219.41 254.615 219.415 254.605 219.385C254.595 219.355 254.645 219.309 254.716 219.284C254.786 219.259 254.856 219.259 254.867 219.284Z" fill="#263238"/>
<path d="M267.063 218.64L266.731 217.9L274.639 213.928L276.033 216.949L275.53 217.205C273.37 218.328 264.486 222.767 262.805 222.989C260.947 223.256 267.063 218.64 267.063 218.64Z" fill="#455A64"/>
<path d="M276.063 216.732L275.932 216.813L275.545 217.014L274.115 217.739C272.907 218.338 271.226 219.148 269.348 220.004C267.471 220.86 265.749 221.59 264.501 222.108L263.016 222.707L262.613 222.863C262.567 222.885 262.518 222.9 262.468 222.908L262.603 222.843L263.001 222.667L264.471 222.038C265.714 221.504 267.426 220.759 269.303 219.903C271.181 219.048 272.867 218.252 274.085 217.668L275.525 216.979L275.922 216.793L276.063 216.732Z" fill="#263238"/>
<path d="M265.367 221.851C265.192 221.639 264.995 221.446 264.778 221.277C264.542 221.138 264.29 221.026 264.028 220.945C264.317 220.941 264.6 221.026 264.84 221.188C265.079 221.35 265.263 221.582 265.367 221.851Z" fill="#263238"/>
<path d="M267.184 219.576C267.184 219.576 266.993 219.516 266.791 219.385C266.59 219.254 266.444 219.128 266.459 219.103C266.474 219.078 266.65 219.163 266.852 219.294C267.053 219.425 267.199 219.551 267.184 219.576Z" fill="#263238"/>
<path d="M267.677 218.962C267.677 218.987 267.506 218.962 267.31 218.902C267.113 218.841 266.968 218.766 266.973 218.735C267.1 218.724 267.228 218.744 267.345 218.796C267.536 218.841 267.687 218.912 267.677 218.962Z" fill="#263238"/>
<path d="M267.748 217.995C267.748 218.026 267.582 218.131 267.35 218.242C267.217 218.322 267.067 218.372 266.912 218.388C266.912 218.358 267.078 218.252 267.305 218.141C267.44 218.062 267.591 218.012 267.748 217.995Z" fill="#263238"/>
<path d="M267.647 217.402C267.647 217.402 267.501 217.603 267.239 217.749C267.091 217.85 266.915 217.902 266.736 217.9C266.88 217.803 267.034 217.72 267.194 217.653C267.441 217.517 267.622 217.376 267.647 217.402Z" fill="#263238"/>
<path d="M266.615 219.002C266.462 219.108 266.291 219.186 266.112 219.234C265.914 219.291 265.712 219.334 265.508 219.36C265.384 219.375 265.259 219.375 265.135 219.36C265.057 219.354 264.985 219.318 264.934 219.259C264.91 219.223 264.898 219.181 264.898 219.138C264.898 219.095 264.91 219.053 264.934 219.017C265.087 218.832 265.3 218.705 265.535 218.66C265.771 218.614 266.016 218.651 266.227 218.766C266.352 218.831 266.462 218.922 266.55 219.032C266.61 219.113 266.635 219.163 266.63 219.168C266.506 219.03 266.358 218.916 266.192 218.831C266.015 218.748 265.817 218.718 265.623 218.746C265.508 218.758 265.396 218.792 265.294 218.847C265.192 218.903 265.102 218.978 265.029 219.068C264.974 219.163 265.029 219.244 265.165 219.259C265.281 219.269 265.397 219.269 265.513 219.259C265.713 219.239 265.912 219.204 266.107 219.153C266.394 219.073 266.615 218.987 266.615 219.002Z" fill="#263238"/>
<path d="M266.474 219.088C266.362 219.008 266.283 218.89 266.253 218.756C266.208 218.614 266.198 218.464 266.222 218.318C266.231 218.221 266.264 218.128 266.319 218.048C266.373 217.968 266.448 217.903 266.534 217.86C266.66 217.819 266.952 218.076 266.972 218.172C266.993 218.267 266.826 218.217 266.816 218.298C266.8 218.44 266.766 218.581 266.716 218.715C266.679 218.845 266.61 218.963 266.514 219.058C266.514 219.058 266.575 218.922 266.645 218.695C266.681 218.562 266.707 218.425 266.721 218.287C266.721 218.147 266.721 217.93 266.56 217.965C266.399 218.001 266.353 218.197 266.318 218.338C266.287 218.469 266.287 218.605 266.318 218.735C266.36 218.857 266.412 218.975 266.474 219.088Z" fill="#263238"/>
<path d="M274.905 214.613C274.905 214.613 274.664 214.698 274.321 214.905C273.874 215.172 273.51 215.559 273.269 216.022C273.037 216.49 272.937 217.012 272.983 217.532C273.013 217.935 273.108 218.167 273.088 218.177C273.056 218.127 273.03 218.073 273.013 218.016C272.963 217.862 272.928 217.703 272.907 217.542C272.835 217.006 272.928 216.461 273.173 215.979C273.419 215.497 273.805 215.101 274.281 214.844C274.424 214.766 274.574 214.702 274.729 214.653C274.786 214.631 274.845 214.618 274.905 214.613Z" fill="#263238"/>
<path d="M271.739 217.905C271.03 218.399 270.237 218.76 269.399 218.972C269.399 218.942 269.927 218.741 270.571 218.469C271.216 218.197 271.724 217.88 271.739 217.905Z" fill="#263238"/>
<path d="M273.305 217.185C273.33 217.185 273.305 217.311 273.305 217.457C273.305 217.603 273.305 217.724 273.305 217.734C273.305 217.744 273.204 217.623 273.204 217.457C273.204 217.291 273.28 217.17 273.305 217.185Z" fill="#263238"/>
<path d="M273.562 216.178C273.587 216.178 273.562 216.294 273.531 216.415C273.501 216.536 273.426 216.626 273.4 216.616C273.375 216.606 273.4 216.501 273.431 216.38C273.461 216.259 273.531 216.168 273.562 216.178Z" fill="#263238"/>
<path d="M274.256 215.438C274.256 215.469 274.156 215.514 274.055 215.61C273.954 215.705 273.899 215.806 273.874 215.796C273.849 215.786 273.874 215.645 273.984 215.529C274.095 215.413 274.251 215.438 274.256 215.438Z" fill="#263238"/>
<path d="M274.785 215.026C274.785 215.026 274.785 215.106 274.724 215.162C274.664 215.217 274.608 215.247 274.588 215.227C274.568 215.207 274.588 215.146 274.649 215.091C274.709 215.036 274.765 215.006 274.785 215.026Z" fill="#263238"/>
<path d="M264.884 112.572L263.414 94.6016L270.964 94.7375C270.964 94.7375 271.311 92.0848 270.199 86.276C269.514 82.7122 267.144 80.5276 264.481 79.229V79.1786L264.249 79.1182C262.057 78.1341 259.716 77.5233 257.323 77.3112L248.036 77.4169C248.036 77.4169 240.944 76.5108 237.033 81.5897C235.522 83.5377 230.836 96.8718 230.836 96.8718L241.986 102.238L240.944 94.8432C240.944 94.8432 241.155 100.204 241.84 101.89C242.217 102.837 243.35 105.776 243.35 105.776L243.204 114.645L264.884 112.572Z" fill="#FF725E"/>
<path d="M259.764 91.9942L258.385 97.8634H271.387L270.531 88.0177L259.764 91.9942Z" fill="#FF725E"/>
<path d="M271.387 97.8635C270.819 97.7588 270.243 97.7016 269.666 97.6923C268.598 97.6319 267.149 97.5766 265.498 97.5866C263.847 97.5967 262.392 97.6672 261.325 97.7477C260.748 97.7678 260.173 97.8386 259.608 97.9591C260.185 98.005 260.764 98.005 261.34 97.9591C262.402 97.9239 263.857 97.8836 265.498 97.8786C267.139 97.8736 268.593 97.8786 269.661 97.9038C270.236 97.936 270.813 97.9226 271.387 97.8635Z" fill="#263238"/>
<path d="M259.201 87.9724C259.139 88.4733 259.125 88.979 259.16 89.4825C259.16 90.4036 259.201 91.6721 259.256 93.0765C259.311 94.4809 259.377 95.7544 259.437 96.6705C259.44 97.178 259.494 97.684 259.598 98.1806C259.66 97.6797 259.674 97.174 259.639 96.6705C259.639 95.7493 259.598 94.4758 259.543 93.0715C259.488 91.6671 259.422 90.3986 259.362 89.4775C259.36 88.9716 259.306 88.4673 259.201 87.9724Z" fill="#263238"/>
<g opacity="0.3">
<path d="M247.372 93.0563C247.372 93.0563 250.261 114.484 258.385 113.916C258.385 113.916 262.045 113.875 263.217 111.444V110.488L247.372 93.0563Z" fill="black"/>
</g>
<g opacity="0.3">
<path d="M259.201 89.2358L257.645 99.741L258.652 101.583L260.313 97.9792L259.608 97.9591L259.201 89.2358Z" fill="black"/>
</g>
<path d="M243.305 105.786C243.208 105.629 243.134 105.46 243.083 105.283C242.957 104.956 242.791 104.478 242.58 103.879C242.076 102.318 241.66 100.73 241.336 99.1218C241.013 97.5131 240.808 95.8829 240.722 94.2443C240.692 93.6151 240.682 93.1067 240.692 92.7342C240.679 92.5522 240.691 92.3693 240.727 92.1906C240.768 92.1906 240.798 92.9657 240.903 94.204C241.045 95.8278 241.275 97.4426 241.593 99.0413C241.966 100.914 242.414 102.59 242.756 103.793C242.917 104.352 243.053 104.83 243.164 105.223C243.233 105.404 243.28 105.594 243.305 105.786Z" fill="#263238"/>
<path d="M246.586 111.942C246.516 111.942 246.315 111.504 246.138 110.936C245.987 110.587 245.919 110.208 245.942 109.828C246.164 110.136 246.317 110.488 246.39 110.86C246.534 111.202 246.601 111.572 246.586 111.942Z" fill="#263238"/>
<path d="M247.709 111.862C247.328 110.852 247.312 109.741 247.664 108.721C247.703 109.244 247.703 109.769 247.664 110.291C247.719 110.813 247.734 111.338 247.709 111.862Z" fill="#263238"/>
<path d="M242.212 102.484C242.177 102.545 239.585 101.317 236.418 99.7359C233.252 98.1554 230.71 96.8165 230.741 96.751C230.771 96.6856 233.368 97.9188 236.534 99.4994C239.7 101.08 242.242 102.419 242.212 102.484Z" fill="#263238"/>
<path d="M246.783 79.1534C246.838 76.6064 246.853 73.9285 246.853 73.9285C246.853 73.9285 243.586 73.2993 243.018 69.0006C242.474 64.9033 243.994 55.2841 243.994 55.2841C248.766 53.482 253.724 55.118 256.991 58.9838L256.18 79.6568C256.085 82.0578 253.946 83.8901 251.378 83.7693C248.781 83.6434 246.727 81.5796 246.783 79.1534Z" fill="#B78876"/>
<path d="M243.742 62.9705C243.738 63.1116 243.788 63.249 243.881 63.3548C243.975 63.4605 244.105 63.5265 244.246 63.5393C244.317 63.5462 244.389 63.5384 244.458 63.5166C244.526 63.4947 244.589 63.4591 244.643 63.412C244.698 63.3649 244.742 63.3073 244.773 63.2426C244.804 63.1779 244.822 63.1076 244.825 63.0359C244.829 62.8953 244.779 62.7584 244.686 62.6535C244.592 62.5486 244.462 62.4837 244.321 62.4721C244.25 62.4612 244.176 62.466 244.107 62.486C244.037 62.5061 243.972 62.541 243.917 62.5883C243.862 62.6356 243.818 62.6943 243.788 62.7603C243.758 62.8262 243.742 62.8979 243.742 62.9705Z" fill="#263238"/>
<path d="M243.541 62.2506C243.607 62.3211 244.044 62.0241 244.623 62.0442C245.202 62.0644 245.63 62.3664 245.701 62.2959C245.771 62.2255 245.67 62.1348 245.484 61.9889C245.232 61.8063 244.93 61.7061 244.618 61.702C244.312 61.6903 244.01 61.7786 243.758 61.9536C243.571 62.0895 243.506 62.2154 243.541 62.2506Z" fill="#263238"/>
<path d="M249.738 63.3429C249.732 63.4843 249.781 63.6225 249.875 63.7285C249.969 63.8345 250.1 63.9001 250.241 63.9117C250.313 63.9226 250.387 63.9178 250.457 63.8974C250.527 63.8771 250.592 63.8417 250.647 63.7939C250.702 63.746 250.746 63.6867 250.776 63.6201C250.806 63.5536 250.821 63.4813 250.82 63.4083C250.825 63.2674 250.776 63.1299 250.682 63.0247C250.588 62.9195 250.457 62.8549 250.316 62.8446C250.245 62.8337 250.171 62.8384 250.102 62.8585C250.032 62.8785 249.967 62.9134 249.912 62.9608C249.857 63.0081 249.813 63.0667 249.783 63.1327C249.753 63.1986 249.737 63.2703 249.738 63.3429Z" fill="#263238"/>
<path d="M249.697 62.6232C249.763 62.6987 250.201 62.4017 250.779 62.4168C251.358 62.4319 251.786 62.7389 251.862 62.6685C251.937 62.598 251.826 62.5074 251.64 62.3665C251.392 62.1791 251.09 62.0767 250.779 62.0745C250.472 62.0653 250.169 62.1534 249.914 62.3262C249.732 62.4621 249.667 62.5879 249.697 62.6232Z" fill="#263238"/>
<path d="M247.442 66.947C247.133 66.8408 246.812 66.7748 246.486 66.7507C246.335 66.7507 246.194 66.6953 246.174 66.5946C246.162 66.4373 246.2 66.2802 246.284 66.1466L246.758 65.0141C247.198 64.0515 247.56 63.055 247.84 62.0342C247.324 62.9591 246.883 63.9235 246.521 64.9184C246.365 65.3161 246.209 65.6987 246.063 66.0611C245.965 66.2409 245.933 66.4491 245.972 66.65C245.992 66.7046 246.024 66.7538 246.066 66.794C246.108 66.8342 246.159 66.8641 246.214 66.8815C246.297 66.9057 246.384 66.9193 246.471 66.9218C246.792 66.9713 247.119 66.9798 247.442 66.947Z" fill="#263238"/>
<path d="M246.853 73.9286C248.867 74.0092 250.864 73.53 252.622 72.5443C252.622 72.5443 251.157 75.4487 246.883 74.9403L246.853 73.9286Z" fill="#A36957"/>
<path d="M251.59 60.9067C251.469 61.0929 251.016 61.0124 250.513 60.9067C250.009 60.801 249.566 60.7154 249.506 60.4989C249.446 60.2825 249.974 59.9956 250.649 60.1315C251.323 60.2674 251.711 60.7456 251.59 60.9067Z" fill="#263238"/>
<path d="M245.715 60.051C245.67 60.2674 245.187 60.348 244.633 60.3731C244.08 60.3983 243.591 60.3731 243.526 60.1517C243.46 59.9302 243.929 59.6181 244.598 59.5879C245.268 59.5577 245.761 59.8446 245.715 60.051Z" fill="#263238"/>
<path d="M247.452 68.3615C247.389 68.3464 247.322 68.3531 247.263 68.3805C247.203 68.4078 247.155 68.4543 247.125 68.5125C247.096 68.5638 247.082 68.6217 247.082 68.6805C247.083 68.7393 247.099 68.7969 247.129 68.8476C247.158 68.8983 247.201 68.9403 247.252 68.9696C247.303 68.9988 247.361 69.0141 247.42 69.0141C247.478 69.0141 247.536 68.9988 247.587 68.9696C247.638 68.9403 247.681 68.8983 247.71 68.8476C247.74 68.7969 247.756 68.7393 247.757 68.6805C247.757 68.6217 247.743 68.5638 247.714 68.5125C247.678 68.4449 247.62 68.3916 247.549 68.3614C247.479 68.3312 247.4 68.3259 247.326 68.3464" fill="#A36957"/>
<path d="M247.588 68.4218C247.588 68.3966 247.493 68.2506 247.236 68.306C247.159 68.326 247.089 68.3659 247.032 68.4215C246.976 68.4772 246.935 68.5467 246.914 68.6231C246.887 68.7195 246.889 68.8217 246.92 68.9168C246.952 69.0118 247.011 69.0954 247.09 69.1567C247.174 69.214 247.273 69.2447 247.374 69.2447C247.476 69.2447 247.575 69.214 247.659 69.1567C247.726 69.1116 247.778 69.0483 247.81 68.9743C247.842 68.9003 247.853 68.8186 247.84 68.7389C247.79 68.4721 247.593 68.4319 247.583 68.4671C247.573 68.5023 247.654 68.5929 247.639 68.749C247.635 68.7875 247.622 68.8247 247.601 68.8571C247.58 68.8896 247.552 68.9164 247.518 68.9352C247.479 68.9577 247.434 68.9696 247.389 68.9696C247.344 68.9696 247.3 68.9577 247.261 68.9352C247.226 68.9054 247.199 68.867 247.183 68.8238C247.167 68.7806 247.163 68.734 247.17 68.6886C247.176 68.6488 247.192 68.6111 247.215 68.5786C247.239 68.5461 247.27 68.52 247.306 68.5023C247.447 68.4168 247.573 68.457 247.588 68.4218Z" fill="#263238"/>
<path d="M255.038 64.0325C254.535 65.2104 253.286 66.1215 253.457 67.395C253.568 68.2155 254.097 68.9806 253.996 69.8061C253.865 70.8128 252.793 71.5578 252.637 72.5897C252.451 73.8531 253.684 74.8346 254.172 76.0125C254.892 77.734 253.976 79.6669 253.951 81.5495C253.98 82.9788 254.527 84.3488 255.49 85.4058C256.452 86.4628 257.765 87.135 259.186 87.2979C260.333 87.3935 261.627 87.0462 262.206 86.0596C262.709 85.2442 262.598 84.2072 262.89 83.3062C263.333 81.9572 264.617 80.9706 264.904 79.5813C265.407 77.0645 262.337 74.9504 262.538 72.3732C262.624 71.2709 263.303 70.3145 263.59 69.2473C263.773 68.546 263.787 67.8114 263.631 67.1037C263.475 66.3959 263.154 65.735 262.694 65.1752C261.934 64.2741 260.837 63.6651 260.177 62.6986C259.447 61.5862 259.422 60.1818 259.17 58.868C258.833 57.2712 258.095 55.7861 257.027 54.5515C255.96 53.317 254.596 52.3733 253.065 51.8087C251.533 51.2441 249.884 51.0769 248.27 51.3229C246.657 51.5689 245.132 52.22 243.838 53.2153C243.838 53.2153 243.108 56.5324 246.516 57.0912C249.924 57.6499 251.499 57.0056 251.882 58.3697C251.792 58.9317 251.836 59.507 252.011 60.0485C252.186 60.5901 252.487 61.0825 252.889 61.4855C254.278 62.9855 255.602 62.6634 255.038 64.0325Z" fill="#263238"/>
<path d="M260.449 87.0411C260.344 87.0447 260.239 87.0346 260.137 87.0109C259.842 86.9586 259.552 86.8794 259.271 86.7744C258.232 86.3759 257.32 85.7026 256.633 84.8264C256.152 84.2217 255.774 83.5413 255.516 82.8129C255.222 81.9833 255.067 81.1108 255.058 80.2307C255.047 79.2606 255.169 78.2936 255.42 77.3565C255.558 76.8615 255.726 76.3757 255.924 75.9018C256.131 75.43 256.315 74.9478 256.472 74.4571C256.611 73.9735 256.611 73.4608 256.472 72.9772C256.325 72.5012 256.135 72.0395 255.903 71.598C255.67 71.1602 255.473 70.704 255.315 70.2339C255.16 69.7687 255.123 69.2721 255.209 68.7893C255.41 67.843 255.984 67.1383 256.326 66.4184C256.652 65.7521 256.808 65.0154 256.779 64.2741C256.734 63.1894 256.34 62.1481 255.657 61.3043C255.392 61.0087 255.108 60.7312 254.806 60.4738C255.159 60.6721 255.474 60.9311 255.737 61.2389C256.471 62.0814 256.903 63.1439 256.966 64.259C257.007 65.0326 256.855 65.8043 256.523 66.504C256.175 67.249 255.617 67.9587 255.445 68.8245C255.274 69.6903 255.682 70.6014 256.13 71.4772C256.374 71.9314 256.573 72.4085 256.724 72.9017C256.873 73.4284 256.873 73.9859 256.724 74.5125C256.556 75.0203 256.363 75.5193 256.145 76.0075C255.947 76.4711 255.779 76.9469 255.642 77.432C255.392 78.3454 255.268 79.2887 255.274 80.2357C255.259 81.8485 255.779 83.4207 256.754 84.7055C257.406 85.5708 258.274 86.2495 259.271 86.6737C260.021 86.9656 260.454 87.0109 260.449 87.0411Z" fill="#455A64"/>
<path d="M259.946 61.6416C259.7 61.7051 259.449 61.7422 259.196 61.7523C258.505 61.8262 257.807 61.8076 257.122 61.6969C256.602 61.62 256.103 61.4401 255.653 61.1678C255.204 60.8956 254.813 60.5364 254.504 60.1114C254.216 59.5736 253.987 59.0066 253.82 58.4201C253.605 57.8342 253.201 57.3365 252.672 57.0056C251.57 56.3059 250.276 56.2204 249.148 56.0845C248.108 56.0326 247.099 55.7174 246.214 55.1684C245.621 54.7757 245.193 54.1793 245.011 53.4922C244.967 53.3059 244.955 53.1136 244.976 52.9234C244.976 52.7925 245.006 52.7271 245.016 52.7271C245.022 52.9764 245.054 53.2244 245.112 53.467C245.32 54.1095 245.748 54.6583 246.32 55.0173C247.188 55.5241 248.169 55.8077 249.174 55.8429C250.301 55.9737 251.64 56.0392 252.818 56.7841C253.394 57.1461 253.834 57.6899 254.066 58.3295C254.224 58.9011 254.442 59.4545 254.716 59.9805C255.302 60.7848 256.18 61.327 257.162 61.4906C257.826 61.6139 258.501 61.6595 259.175 61.6265C259.432 61.612 259.69 61.6171 259.946 61.6416Z" fill="#455A64"/>
<path d="M258.697 57.5442C258.508 57.6077 258.308 57.6366 258.108 57.6298C257.17 57.6361 256.267 57.2748 255.592 56.6231C255.284 56.3143 255.021 55.9635 254.811 55.5811C254.358 54.816 253.92 53.8747 252.979 53.4821C252.072 53.1779 251.106 53.0933 250.16 53.2355C249.362 53.3476 248.552 53.3476 247.754 53.2355C247.199 53.1584 246.676 52.9284 246.244 52.571C246.133 52.4737 246.034 52.362 245.952 52.2388C245.892 52.1516 245.867 52.1063 245.877 52.1029C245.877 52.1029 246.018 52.264 246.31 52.4905C246.74 52.7966 247.24 52.9904 247.764 53.0543C248.548 53.1426 249.34 53.1291 250.12 53.014C251.107 52.8528 252.119 52.9392 253.065 53.2657C253.551 53.4841 253.967 53.8325 254.268 54.2724C254.533 54.6648 254.777 55.0714 254.998 55.4905C255.196 55.8564 255.441 56.1948 255.727 56.4972C255.98 56.753 256.27 56.9686 256.588 57.1365C257.056 57.381 257.571 57.5234 258.098 57.5543C258.486 57.5493 258.692 57.5191 258.697 57.5442Z" fill="#455A64"/>
<path d="M261.949 85.9538C261.924 85.9538 262.085 85.6216 262.271 84.9975C262.523 84.1212 262.635 83.2107 262.603 82.2994C262.567 80.9506 262.199 79.6315 261.531 78.4588C261.164 77.7994 260.605 77.2105 260.147 76.4856C259.905 76.1164 259.734 75.7049 259.644 75.2725C259.564 74.8175 259.602 74.3497 259.754 73.9134C260.036 73.0426 260.54 72.3128 260.65 71.5124C260.761 70.7121 260.379 70.0023 259.996 69.3329C259.799 69.0071 259.619 68.671 259.457 68.3261C259.31 67.9916 259.213 67.6371 259.17 67.2741C259.123 66.6345 259.143 65.9917 259.231 65.3563C259.392 64.4582 259.308 63.5333 258.989 62.6784C258.847 62.379 258.645 62.1118 258.395 61.8932C258.395 61.8932 258.42 61.8932 258.456 61.9234C258.515 61.953 258.57 61.9921 258.617 62.0392C258.814 62.2032 258.973 62.4074 259.085 62.6382C259.449 63.5003 259.562 64.4477 259.412 65.3714C259.343 65.9949 259.334 66.6238 259.387 67.249C259.511 67.9522 259.79 68.6192 260.202 69.202C260.417 69.5422 260.601 69.901 260.751 70.2741C260.91 70.6769 260.962 71.1138 260.902 71.5426C260.781 72.4235 260.263 73.1685 260.001 73.989C259.864 74.3848 259.827 74.8087 259.895 75.2222C259.983 75.6221 260.144 76.0025 260.368 76.3447C260.796 77.0443 261.375 77.6433 261.743 78.333C262.417 79.5453 262.777 80.9072 262.79 82.2944C262.806 83.2229 262.663 84.1473 262.367 85.0277C262.286 85.2659 262.189 85.498 262.075 85.7223C262.044 85.8051 262.002 85.883 261.949 85.9538Z" fill="#455A64"/>
<path d="M241.447 179.745C241.447 179.745 238.054 147.611 237.858 135.736C237.662 123.862 243.199 112.144 243.199 112.144L264.884 111.243C264.884 111.243 269.172 123.288 269.248 128.357C269.399 138.193 266.635 147.903 266.952 155.705L267.677 179.765" fill="#263238"/>
<path d="M268.407 140.236C268.294 140.335 268.175 140.425 268.05 140.508L267.853 140.644L267.642 140.85C267.456 141.012 267.287 141.192 267.139 141.389C266.439 142.245 265.931 143.78 265.442 145.688C265.193 146.746 264.825 147.773 264.345 148.748C264.199 149.015 264.031 149.27 263.842 149.508C263.751 149.629 263.665 149.76 263.56 149.876L263.228 150.208C262.752 150.653 262.199 151.007 261.597 151.255C260.384 151.788 259.009 152.04 257.761 152.669C256.482 153.357 255.494 154.483 254.977 155.841C254.363 157.205 253.971 158.634 253.467 159.973C252.964 161.312 252.284 162.591 251.202 163.406C250.167 164.125 248.939 164.513 247.679 164.518C246.511 164.589 245.429 164.554 244.457 164.7C243.583 164.79 242.747 165.106 242.031 165.616C241.508 166.025 241.116 166.578 240.903 167.206C240.768 167.603 240.739 168.028 240.818 168.44C240.878 168.722 240.954 168.857 240.939 168.862C240.858 168.736 240.8 168.596 240.768 168.45C240.661 168.03 240.675 167.589 240.808 167.176C241.008 166.516 241.403 165.932 241.94 165.5C242.675 164.946 243.544 164.599 244.457 164.493C245.464 164.332 246.536 164.352 247.689 164.277C248.912 164.269 250.104 163.89 251.107 163.19C252.124 162.301 252.875 161.147 253.276 159.857C253.779 158.533 254.147 157.099 254.786 155.71C255.328 154.296 256.361 153.126 257.696 152.413C258.994 151.768 260.368 151.522 261.551 151.008C262.13 150.769 262.662 150.428 263.122 150.002L263.439 149.684C263.54 149.574 263.625 149.448 263.716 149.332C263.893 149.103 264.05 148.859 264.184 148.602C264.666 147.64 265.039 146.627 265.296 145.582C265.8 143.679 266.348 142.124 267.088 141.263C267.236 141.067 267.404 140.888 267.592 140.73C267.672 140.659 267.743 140.589 267.813 140.533L268.02 140.402C268.145 140.339 268.275 140.284 268.407 140.236Z" fill="#999999"/>
<path d="M268.538 125.367C268.561 125.508 268.571 125.652 268.568 125.795C268.566 126.211 268.516 126.624 268.417 127.028C267.984 128.501 267.132 129.816 265.966 130.813C265.196 131.521 264.352 132.144 263.449 132.671C262.477 133.245 261.405 133.793 260.303 134.417C259.145 135.038 258.067 135.797 257.091 136.678C256.091 137.67 255.267 138.826 254.655 140.095C254.038 141.382 253.333 142.625 252.546 143.815C252.146 144.37 251.683 144.877 251.167 145.325C250.658 145.758 250.098 146.128 249.501 146.428C248.419 146.959 247.292 147.392 246.133 147.721C245.056 148.054 244.049 148.351 243.173 148.728C242.379 149.044 241.622 149.45 240.918 149.936C240.389 150.303 239.913 150.742 239.504 151.24C239.162 151.671 238.876 152.145 238.653 152.649C238.689 152.51 238.736 152.373 238.794 152.242C238.959 151.861 239.171 151.503 239.423 151.174C239.825 150.656 240.3 150.198 240.833 149.815C241.54 149.311 242.301 148.889 243.103 148.557C244.073 148.162 245.062 147.817 246.068 147.525C247.21 147.188 248.322 146.753 249.39 146.226C249.957 145.931 250.488 145.573 250.976 145.159C251.472 144.717 251.918 144.221 252.304 143.679C253.081 142.495 253.779 141.261 254.393 139.985C255.025 138.687 255.876 137.508 256.91 136.501C257.903 135.608 259.002 134.84 260.182 134.216C261.289 133.597 262.362 133.058 263.333 132.49C264.234 131.98 265.078 131.376 265.85 130.688C267.006 129.72 267.865 128.444 268.326 127.008C268.456 126.47 268.527 125.92 268.538 125.367Z" fill="#999999"/>
<path d="M237.969 137.418C237.949 137.386 237.934 137.352 237.924 137.317C237.886 137.22 237.854 137.121 237.828 137.02C237.742 136.619 237.759 136.204 237.878 135.812C238.16 134.805 239.273 133.511 241.065 132.872C241.961 132.565 242.972 132.369 244.029 132.107C244.907 131.962 245.738 131.608 246.451 131.077C247.165 130.545 247.741 129.851 248.132 129.052C248.418 128.465 248.668 127.862 248.882 127.245C249.275 125.905 249.81 124.611 250.477 123.384C251.242 122.178 252.402 121.276 253.759 120.832C254.994 120.431 256.253 120.112 257.53 119.875C258.668 119.657 259.771 119.281 260.806 118.758C261.683 118.257 262.439 117.57 263.021 116.744C263.881 115.553 264.371 114.135 264.431 112.667C264.433 112.129 264.398 111.59 264.325 111.057C264.477 111.579 264.547 112.123 264.531 112.667C264.512 114.167 264.038 115.625 263.172 116.85C262.583 117.703 261.811 118.413 260.912 118.929C259.863 119.471 258.743 119.863 257.585 120.092C256.321 120.332 255.073 120.653 253.85 121.053C252.547 121.48 251.433 122.347 250.699 123.505C250.042 124.715 249.514 125.99 249.123 127.31C248.906 127.938 248.649 128.552 248.353 129.147C248.055 129.719 247.675 130.245 247.226 130.708C246.342 131.514 245.254 132.062 244.08 132.293C243.013 132.565 242.006 132.736 241.125 133.028C239.378 133.622 238.271 134.845 237.974 135.822C237.852 136.198 237.819 136.598 237.878 136.99C237.921 137.129 237.951 137.273 237.969 137.418Z" fill="#999999"/>
<path d="M266.676 164.599C266.696 164.704 266.708 164.81 266.711 164.916C266.72 165.221 266.688 165.526 266.615 165.822C266.299 166.914 265.63 167.87 264.712 168.54C264.1 169.028 263.422 169.428 262.699 169.728C261.929 170.055 261.078 170.317 260.182 170.594C259.252 170.866 258.342 171.202 257.459 171.601C256.542 172.039 255.719 172.653 255.038 173.408C254.303 174.173 253.669 175.014 252.964 175.759C252.29 176.48 251.507 177.092 250.644 177.571C249.174 178.372 247.53 178.801 245.857 178.819C244.736 178.831 243.621 178.645 242.565 178.27C242.278 178.171 241.999 178.052 241.729 177.913C241.631 177.872 241.538 177.82 241.452 177.757C241.554 177.785 241.653 177.82 241.749 177.863C242.026 177.981 242.308 178.085 242.595 178.175C243.65 178.505 244.752 178.66 245.857 178.633C247.493 178.59 249.096 178.153 250.528 177.359C251.364 176.885 252.123 176.286 252.778 175.582C253.467 174.847 254.097 174.012 254.847 173.227C255.568 172.443 256.437 171.811 257.404 171.364C258.3 170.964 259.223 170.628 260.167 170.357C261.053 170.086 261.899 169.854 262.684 169.522C263.386 169.234 264.047 168.853 264.647 168.389C265.549 167.752 266.221 166.841 266.565 165.792C266.639 165.399 266.676 164.999 266.676 164.599Z" fill="#999999"/>
<path d="M264.204 97.8836L260.006 97.9843C259.844 98.8308 259.523 99.6388 259.06 100.365C255.536 94.2745 252.833 86.1201 252.159 82.8432C252.259 82.516 252.375 82.1536 252.521 81.7509C252.626 81.1392 252.607 80.5128 252.466 79.9086C252.345 79.1787 252.143 78.1972 252.083 77.7441C251.897 76.3549 251.67 76.1384 251.187 76.2945C250.533 76.5109 251.459 80.1854 250.92 80.266C250.628 80.3062 250.276 79.0478 250.175 78.016C250.075 76.9841 249.601 73.8028 249.264 73.5914C248.761 73.2793 248.323 73.7726 248.454 74.7995C248.585 75.8263 248.741 78.9472 248.197 78.9925C247.653 79.0378 247.19 73.7625 247.19 73.7625C247.19 73.7625 247.276 72.6149 246.642 72.6401C245.504 72.6904 246.395 78.2475 246.491 78.776C246.561 79.1384 245.987 79.2089 245.917 78.8113C245.846 78.4136 245.585 73.5411 244.407 73.5813C243.511 73.5813 245.096 78.1569 244.593 79.2139C244.09 80.271 243.747 75.63 242.897 75.6904C242.58 75.7156 242.343 75.776 242.927 78.3985C243.486 80.4822 244.158 82.5339 244.94 84.5445C246.289 91.8181 252.209 115.088 261.486 110.83C266.68 108.444 268.785 97.8836 268.785 97.8836H264.204Z" fill="#B78876"/>
<path d="M246.31 79.1283C246.349 79.1383 246.391 79.1383 246.43 79.1283C246.491 79.1097 246.543 79.0702 246.577 79.0167C246.611 78.9631 246.625 78.8992 246.617 78.8363C246.617 78.5243 246.556 78.0712 246.486 77.4823C246.368 76.7725 246.29 76.0566 246.254 75.338C246.254 74.9152 246.254 74.4621 246.279 73.9839C246.287 73.7408 246.312 73.4986 246.355 73.2591C246.395 73.0326 246.546 72.7558 246.722 72.8011H246.752C246.929 72.8011 247.07 72.9319 247.125 73.1433C247.187 73.3624 247.211 73.5906 247.195 73.8178C247.299 75.2275 247.479 76.6306 247.734 78.0209C247.774 78.2071 247.815 78.3984 247.875 78.5897C247.902 78.6876 247.935 78.7835 247.976 78.8766C248.001 78.9285 248.03 78.9789 248.061 79.0276C248.084 79.0644 248.115 79.0954 248.151 79.1181C248.188 79.1409 248.23 79.1547 248.273 79.1585C248.346 79.1504 248.415 79.1208 248.472 79.0733C248.528 79.0258 248.569 78.9626 248.59 78.8917C248.633 78.7933 248.665 78.6903 248.685 78.5847C248.725 78.3818 248.751 78.1767 248.766 77.9706C248.812 77.1318 248.8 76.2909 248.731 75.4538C248.667 75.0358 248.65 74.612 248.68 74.1903C248.699 74.0082 248.787 73.8403 248.927 73.7222C248.959 73.703 248.995 73.6909 249.033 73.6865C249.07 73.6822 249.108 73.6858 249.143 73.697C249.186 73.7073 249.227 73.7243 249.264 73.7474C249.29 73.7665 249.309 73.7928 249.32 73.8229C249.478 74.2311 249.595 74.6544 249.667 75.0863C249.758 75.5293 249.833 75.9873 249.904 76.4454C249.974 76.9034 250.039 77.3665 250.095 77.8347C250.138 78.3177 250.215 78.7971 250.326 79.2692C250.386 79.5106 250.462 79.7478 250.553 79.979C250.604 80.1084 250.676 80.229 250.764 80.3364C250.798 80.381 250.844 80.4151 250.897 80.4347C250.949 80.4543 251.006 80.4586 251.061 80.4471C251.112 80.4303 251.158 80.4006 251.194 80.3609C251.23 80.3212 251.256 80.2729 251.268 80.2206C251.327 79.9634 251.346 79.6984 251.323 79.4353C251.323 79.1837 251.293 78.932 251.268 78.6904C251.232 78.2676 251.192 77.8498 251.177 77.437C251.164 77.2342 251.164 77.0308 251.177 76.8279C251.187 76.7382 251.209 76.6501 251.242 76.5662C251.253 76.5385 251.268 76.5129 251.288 76.4907H251.353C251.685 76.3548 251.796 76.8179 251.887 77.1904C251.977 77.5629 252.013 77.9857 252.093 78.3833C252.224 79.1736 252.395 79.9639 252.481 80.7189C252.539 81.0805 252.525 81.4499 252.44 81.8062C252.32 82.1686 252.199 82.526 252.083 82.8834V82.9186V82.9488C252.673 85.4217 253.424 87.8532 254.333 90.2274C255.128 92.3768 255.929 94.2543 256.628 95.7644C257.328 97.2745 257.962 98.4574 258.395 99.2527L258.899 100.154C258.953 100.261 259.019 100.362 259.095 100.456C259.053 100.344 259 100.236 258.939 100.134L258.435 99.2124C258.023 98.402 257.429 97.199 256.744 95.6889C256.06 94.1788 255.284 92.3013 254.509 90.1519C253.622 87.7813 252.886 85.3569 252.305 82.8934V82.9639C252.42 82.6116 252.536 82.2542 252.657 81.8968C252.762 81.5045 252.782 81.0945 252.717 80.6938C252.627 79.9035 252.461 79.1384 252.33 78.3431C252.254 77.9504 252.204 77.5477 252.123 77.135C252.118 76.9229 252.083 76.7127 252.018 76.5108C251.96 76.388 251.863 76.2886 251.741 76.2289C251.612 76.1867 251.472 76.1867 251.343 76.2289H251.263C251.22 76.2426 251.181 76.2649 251.147 76.2944C251.091 76.3418 251.048 76.4023 251.021 76.4706C250.975 76.5795 250.946 76.695 250.935 76.8128C250.92 77.0307 250.92 77.2493 250.935 77.4672C250.935 77.89 250.996 78.3129 251.031 78.7357C251.031 78.9823 251.071 79.239 251.081 79.4655C251.101 79.6926 251.09 79.9213 251.046 80.1451C251.046 80.1954 251.006 80.1854 251.046 80.2105L251.016 80.1803C250.952 80.0981 250.901 80.0064 250.865 79.9085C250.777 79.6908 250.705 79.467 250.649 79.239C250.538 78.7806 250.462 78.3145 250.422 77.8447C250.368 77.3716 250.303 76.9034 250.226 76.4404C250.155 75.9773 250.075 75.5242 249.984 75.0712C249.908 74.6101 249.78 74.1592 249.602 73.7272C249.567 73.6551 249.513 73.594 249.445 73.5511C249.387 73.517 249.324 73.49 249.259 73.4705C249.187 73.4517 249.113 73.4473 249.039 73.4577C248.966 73.4681 248.895 73.493 248.831 73.5309C248.728 73.6085 248.641 73.7066 248.577 73.8192C248.513 73.9318 248.473 74.0565 248.459 74.1853C248.426 74.414 248.426 74.6462 248.459 74.8749C248.459 75.0913 248.509 75.3028 248.524 75.5142C248.594 76.3378 248.61 77.1651 248.57 77.9907C248.558 78.1868 248.533 78.3819 248.494 78.5746C248.48 78.6646 248.454 78.7525 248.419 78.8363C248.406 78.8695 248.387 78.9002 248.363 78.927C248.363 78.9723 248.328 78.927 248.333 78.9874C248.333 78.937 248.333 78.9874 248.333 78.9219C248.311 78.8879 248.291 78.8526 248.273 78.8162C248.237 78.7357 248.207 78.6451 248.177 78.5595C248.122 78.3783 248.081 78.192 248.041 78.0108C247.779 76.6325 247.589 75.2413 247.472 73.843C247.487 73.5899 247.458 73.3362 247.387 73.093C247.353 72.9662 247.285 72.8511 247.19 72.7608C247.141 72.7132 247.083 72.6761 247.019 72.6519C246.955 72.6277 246.886 72.6168 246.818 72.6198H246.848C246.763 72.6074 246.676 72.6203 246.598 72.657C246.52 72.6937 246.455 72.7526 246.41 72.8262C246.335 72.9463 246.284 73.0796 246.259 73.2188C246.217 73.4684 246.193 73.7208 246.189 73.9739C246.189 74.4772 246.189 74.9152 246.189 75.343C246.236 76.0662 246.329 76.7857 246.466 77.4974C246.551 78.0813 246.617 78.5343 246.647 78.8414C246.656 78.8952 246.647 78.9506 246.621 78.9983C246.594 79.046 246.552 79.0831 246.501 79.1031C246.35 79.1182 246.304 79.1233 246.31 79.1283Z" fill="#A36957"/>
<path d="M213.526 104.815C212.543 104.794 211.563 104.907 210.611 105.152C208.009 105.837 203.524 108.555 203.338 111.912H206.599C206.599 111.912 204.772 115.798 205.306 115.436C206.7 114.499 209.469 111.686 209.469 111.686L213.526 104.815Z" fill="#B78876"/>
<path d="M257.987 46.3092C257.912 46.3092 257.62 43.6212 257.328 40.2688C257.036 36.9165 256.855 34.2285 256.925 34.2285C256.996 34.2285 257.293 36.9165 257.585 40.2688C257.877 43.6212 258.058 46.3092 257.987 46.3092Z" fill="#263238"/>
<path d="M272.288 34.4348C272.343 34.4751 270.144 37.6714 267.37 41.5725C264.597 45.4735 262.296 48.6195 262.236 48.5591C262.175 48.4987 264.38 45.3225 267.154 41.4215C269.927 37.5204 272.228 34.3946 272.288 34.4348Z" fill="#263238"/>
<path d="M278.228 48.9216C278.228 48.9921 275.671 49.581 272.489 50.2354C269.308 50.8898 266.711 51.3629 266.696 51.2925C266.681 51.222 269.248 50.6331 272.434 49.9787C275.62 49.3243 278.192 48.8512 278.228 48.9216Z" fill="#263238"/>
<path d="M107.05 118.058L89.2307 209.569L86.9153 221.549L205.708 220.975C211.044 220.95 215.776 216.214 217.482 209.177L238.553 122.785C239.856 117.444 236.997 111.887 232.95 111.892L112.687 112.018C110.07 112.013 107.724 114.489 107.05 118.058Z" fill="#FF725E"/>
<g opacity="0.5">
<path d="M107.05 118.058L89.2307 209.569L86.9153 221.549L205.708 220.975C211.044 220.95 215.776 216.214 217.482 209.177L238.553 122.785C239.856 117.444 236.997 111.887 232.95 111.892L112.687 112.018C110.07 112.013 107.724 114.489 107.05 118.058Z" fill="black"/>
</g>
<path d="M194.327 203.358L181.743 101.976C181.24 97.8232 177.923 94.7225 174.012 94.7376L146.428 94.8232C145.403 94.8347 144.391 95.0549 143.453 95.4703C142.516 95.8857 141.673 96.4876 140.976 97.2393L127.889 111.167L51.1766 111.58C46.4903 111.605 42.8863 116.045 43.5054 121.028L55.1884 214.729C55.6918 218.876 59.0089 221.972 62.91 221.967L196.628 221.7C211.517 222.007 212.942 217.613 212.942 217.613C195.848 221.393 194.327 203.383 194.327 203.358Z" fill="#FF725E"/>
<g opacity="0.5">
<path d="M136.668 183.082L132.157 187.925L97.4255 156.676L101.936 151.834L136.668 183.082Z" fill="white"/>
<path d="M130.27 150.762L135.253 155.247L103.828 188.997L98.8401 184.512L130.27 150.762Z" fill="white"/>
</g>
<path d="M213.42 52.2388C213.257 52.1701 213.117 52.0565 213.016 51.9112C212.916 51.7659 212.858 51.5949 212.851 51.4183L212.65 46.7471C212.643 46.602 212.669 46.4571 212.728 46.3241C212.787 46.1911 212.875 46.0736 212.987 45.9808C213.099 45.888 213.231 45.8225 213.372 45.7895C213.514 45.7565 213.661 45.7569 213.802 45.7907C214.192 45.8748 214.595 45.8784 214.986 45.8014C215.377 45.7244 215.749 45.5683 216.078 45.3427C216.38 45.1511 216.641 44.8995 216.842 44.6034C217.044 44.3073 217.183 43.9731 217.25 43.6212C217.296 43.265 217.27 42.9032 217.173 42.5573C217.076 42.2115 216.911 41.8886 216.687 41.6078C216.451 41.2883 216.154 41.0185 215.814 40.8138C215.474 40.6091 215.096 40.4735 214.703 40.4148C213.911 40.3708 213.128 40.5953 212.479 41.0521C211.831 41.5088 211.355 42.1711 211.13 42.9316C211.054 43.1621 210.893 43.3546 210.68 43.4692C210.466 43.5837 210.216 43.6115 209.983 43.5466C209.749 43.4817 209.55 43.3292 209.426 43.1209C209.302 42.9126 209.263 42.6645 209.318 42.4283C209.66 41.232 210.404 40.1901 211.424 39.4778C212.444 38.7655 213.679 38.4263 214.92 38.5171C215.566 38.6032 216.188 38.8182 216.749 39.1494C217.31 39.4806 217.799 39.9212 218.187 40.445C218.564 40.9305 218.84 41.4867 218.998 42.0807C219.156 42.6747 219.193 43.2944 219.108 43.9031C218.993 44.5109 218.756 45.0889 218.41 45.6014C218.063 46.1139 217.616 46.5501 217.094 46.883C216.339 47.3914 215.457 47.6791 214.547 47.7135L214.703 51.3176C214.709 51.476 214.675 51.6332 214.604 51.7748C214.533 51.9164 214.427 52.0378 214.297 52.1276C214.166 52.2175 214.015 52.2729 213.857 52.2888C213.7 52.3047 213.541 52.2806 213.395 52.2186L213.42 52.2388Z" fill="#FF725E"/>
<path d="M214.799 54.1516C214.81 54.3036 214.775 54.4553 214.699 54.5876C214.624 54.7199 214.511 54.8267 214.374 54.8946C214.238 54.9625 214.084 54.9884 213.933 54.9691C213.782 54.9497 213.64 54.886 213.525 54.7859C213.41 54.6858 213.327 54.5539 213.288 54.4068C213.248 54.2597 213.252 54.1041 213.301 53.9597C213.349 53.8153 213.44 53.6885 213.56 53.5954C213.681 53.5023 213.827 53.4471 213.979 53.4368C214.08 53.4293 214.181 53.4419 214.277 53.4738C214.373 53.5057 214.462 53.5564 214.538 53.6229C214.614 53.6894 214.677 53.7703 214.722 53.8611C214.766 53.9518 214.793 54.0506 214.799 54.1516Z" fill="#FF725E"/>
<path d="M197.247 45.6498C197.269 45.5502 197.284 45.4493 197.292 45.3478C197.292 45.1263 197.348 44.8444 197.388 44.4468C197.437 43.9585 197.52 43.4742 197.635 42.9971C197.7 42.7152 197.735 42.4031 197.836 42.086C197.937 41.7689 198.037 41.4266 198.148 41.0793C198.731 39.3584 199.58 37.7397 200.665 36.2822C202.086 34.395 203.889 32.8275 205.955 31.6815C207.131 31.0184 208.384 30.5012 209.685 30.1412C211.089 29.769 212.536 29.5795 213.989 29.5775C214.754 29.5652 215.519 29.6056 216.279 29.6983C216.667 29.7386 217.049 29.8392 217.437 29.9047C217.829 29.9718 218.216 30.066 218.595 30.1865C220.181 30.6299 221.69 31.3141 223.069 32.2151C226.136 34.204 228.472 37.137 229.724 40.5709C230.398 42.4103 230.739 44.3552 230.731 46.3142C230.751 48.3324 230.395 50.3367 229.679 52.2237L229.452 52.7975L229.422 52.873L229.452 52.9485C230.715 55.8529 231.969 58.707 233.152 61.4704L233.363 61.2288L225.813 58.3345L225.722 58.2992L225.647 58.3697C223.649 60.305 221.204 61.7161 218.529 62.4771C216.243 63.1064 213.85 63.2438 211.508 62.8802C209.165 62.5167 206.926 61.6605 204.938 60.3681C203.31 59.3006 201.876 57.9644 200.695 56.4167C198.984 54.1575 197.875 51.5004 197.474 48.6951C197.413 48.1918 197.363 47.7689 197.317 47.3864C197.272 47.0038 197.317 46.6917 197.292 46.425C197.267 46.1582 197.292 45.982 197.292 45.836C197.317 45.8322 197.34 45.8191 197.356 45.7992C197.372 45.7793 197.379 45.7542 197.378 45.7289C197.376 45.7036 197.364 45.68 197.346 45.6627C197.327 45.6454 197.303 45.6358 197.277 45.6358C197.252 45.6358 197.227 45.6454 197.209 45.6627C197.19 45.68 197.179 45.7036 197.177 45.7289C197.175 45.7542 197.183 45.7793 197.198 45.7992C197.214 45.8191 197.237 45.8322 197.262 45.836C197.262 45.982 197.262 46.1783 197.262 46.425C197.262 46.6716 197.262 47.0139 197.262 47.3965C197.262 47.779 197.348 48.2169 197.398 48.7153C197.564 49.926 197.852 51.1167 198.259 52.269C198.835 53.7907 199.61 55.2294 200.564 56.5476C201.75 58.1229 203.195 59.4847 204.838 60.5744C206.85 61.8991 209.12 62.7808 211.499 63.1609C213.878 63.541 216.31 63.4109 218.635 62.7792C221.342 62.0103 223.818 60.5857 225.843 58.6315L225.677 58.6667L233.227 61.5761L233.605 61.7221L233.439 61.3345C232.241 58.5711 231.002 55.722 229.744 52.8126V52.9586L229.976 52.3697C230.71 50.4415 231.075 48.3925 231.053 46.3293C231.068 44.3287 230.728 42.3412 230.046 40.4601C228.767 36.9578 226.379 33.9691 223.246 31.9483C221.832 31.0263 220.283 30.33 218.655 29.8845C218.27 29.7626 217.876 29.6701 217.477 29.6077C217.084 29.5372 216.697 29.4365 216.304 29.4013C215.535 29.3057 214.759 29.262 213.984 29.2704C212.508 29.2767 211.039 29.4764 209.615 29.8644C208.296 30.2388 207.027 30.7694 205.834 31.4449C203.747 32.6191 201.934 34.2233 200.514 36.1514C199.432 37.633 198.595 39.2779 198.032 41.0239C197.927 41.3863 197.826 41.7336 197.735 42.0306C197.655 42.3341 197.591 42.6416 197.544 42.9518C197.436 43.4322 197.365 43.9202 197.333 44.4115C197.302 44.7991 197.282 45.0961 197.267 45.3176C197.246 45.427 197.239 45.5386 197.247 45.6498Z" fill="#263238"/>
</svg>
